<?xml version="1.0" encoding="UTF-8"?>
<!DOCTYPE svg PUBLIC "-//W3C//DTD SVG 1.1//EN" "http://www.w3.org/Graphics/SVG/1.1/DTD/svg11.dtd">
<!-- Creator: CorelDRAW X7 -->
<svg xmlns="http://www.w3.org/2000/svg" xml:space="preserve" width="1024px" height="340px" version="1.1" style="shape-rendering:geometricPrecision; text-rendering:geometricPrecision; image-rendering:optimizeQuality; fill-rule:evenodd; clip-rule:evenodd"
viewBox="0 0 102400 34000"
 xmlns:xlink="http://www.w3.org/1999/xlink">
 <defs>
  <style type="text/css">
   <![CDATA[
    .fil2 {fill:#FEFEFE}
    .fil0 {fill:#BDBEBF}
    .fil1 {fill:#FC8835}
    .fil4 {fill:#BDBEBF;fill-rule:nonzero}
    .fil3 {fill:#FC8835;fill-rule:nonzero}
   ]]>
  </style>
 </defs>
 <g id="Layer_x0020_1">
  <metadata id="CorelCorpID_0Corel-Layer"/>
  <g id="_352568032">
   <g>
    <path class="fil0" d="M17010 5727c6226,0 11273,5047 11273,11273 0,44 0,88 -1,132l0 15c-1,85 -3,170 -6,254l-2 37c-3,78 -6,155 -11,232l-5 76c-4,65 -9,130 -14,195 -4,44 -7,88 -12,131 -4,47 -9,94 -14,140 -6,56 -12,111 -19,167 -4,34 -8,69 -13,103 -8,60 -16,119 -25,179l-14 93c-10,64 -21,128 -32,191l-13 76c-12,68 -25,136 -39,204l-13 66c-15,72 -31,144 -47,216l-14 60c-18,77 -37,155 -56,232l-9 34c-21,80 -43,160 -65,240l-9 28c-22,80 -46,159 -70,238l-8 26c-25,79 -51,157 -77,236l-9 27c-27,78 -54,156 -82,233l-9 24c-29,79 -59,158 -90,236l-7 18c-32,81 -65,161 -98,241l-4 9c-1712,4044 -5717,6882 -10386,6884l-3 0c-96,0 -192,-2 -288,-4l0 0c-6091,-155 -10981,-5141 -10981,-11269 0,-6226 5047,-11273 11272,-11273z"/>
    <path class="fil1" d="M17010 -10c9395,0 17010,7615 17010,17010 0,137 -2,274 -5,411l-1 41c-3,129 -8,258 -14,386l-3 63c-7,125 -15,250 -24,375l-5 68c-10,124 -21,247 -33,371l-7 62c-13,126 -27,252 -43,377l-5 42c-17,126 -34,252 -53,377l-4 23c-19,126 -40,252 -62,377l-10 58c-21,119 -44,237 -68,355l-16 76c-23,114 -48,228 -74,341l-19 83c-26,113 -54,225 -82,337 -7,26 -14,51 -20,77 -30,114 -60,227 -92,339 -6,21 -13,43 -19,64 -29,103 -59,205 -91,306 -7,24 -14,47 -21,70 -34,108 -69,215 -104,322 -10,29 -20,58 -30,87 -34,102 -70,203 -107,305 -13,35 -25,69 -38,104 -36,98 -73,195 -111,292 -14,36 -29,73 -43,109 -38,96 -77,191 -117,286 -15,35 -30,70 -45,105 -35,82 -71,164 -108,246 -21,47 -42,94 -63,141 -34,74 -69,147 -104,221 -22,47 -45,95 -68,142 -36,75 -74,150 -111,224 -23,45 -45,89 -68,134 -42,80 -84,160 -127,240 -25,46 -50,92 -75,138 -43,78 -86,155 -130,232 -27,47 -54,94 -81,141 -35,59 -70,118 -105,177 -38,65 -77,129 -117,193 -30,48 -60,96 -90,144 -45,72 -91,143 -137,214 -29,45 -58,89 -88,133 -50,76 -102,151 -153,227 -27,39 -54,78 -81,116 -55,79 -111,157 -167,234 -27,37 -54,74 -81,111 -40,54 -80,108 -121,161 -24,32 -48,63 -71,94 -65,84 -130,167 -196,249 -19,25 -39,49 -58,73 -71,88 -144,176 -217,263l-55 66c-78,91 -156,181 -236,271l-43 49c-86,97 -174,192 -263,287l-29 32c-251,267 -510,526 -778,777l-18 17c-101,94 -203,187 -306,278l-25 23c-52,45 -104,91 -156,136l1 0 0 0 -38 33 0 0 -38 32 0 0 -37 33 0 0 -38 32 0 0 -39 32 0 0 -38 32 0 0 -38 32 0 0 -38 31 0 0 -39 32 0 0 -77 63 0 0c-26,21 -52,42 -78,62l0 0 -39 31 0 1 -4 3 -69 55 -5 3 0 0 -5 4 -74 58 0 0 -39 30 0 0 -39 31 0 0 -40 30 0 0 -40 30 0 0 -39 30 0 0 -40 30 0 0 -40 30 0 0 -40 30 0 0 -40 29 0 0 -7 5 -68 49 -6 5 0 0 -7 5 -74 53 0 0 -81 58 0 0c-41,29 -82,58 -123,86l0 0 -41 29 0 0 -41 28 0 0 -41 28 0 0 -41 28 0 0 -42 28 0 0 -41 28 0 0 -42 28 0 0 -42 28 0 0 -41 27 0 0 -42 27 0 0 -42 28 0 0 -42 27 0 0 -42 27 0 0 -42 27 0 0 -42 26 0 1 -43 26 0 0 -42 27 0 0 -42 26 0 0 -43 26 0 0 -43 27 0 0 -42 26 0 0 -43 26 0 0 -43 25 0 0 -43 26 0 0 -43 26 0 0 -43 25 0 0 -43 25 0 0 -44 26 0 0 -5119 -7311c-1035,476 -2187,741 -3402,741 -4504,0 -8155,-3651 -8155,-8155 0,-4504 3651,-8156 8155,-8156 4504,0 8156,3652 8156,8156 0,2139 -824,4086 -2172,5540l3297 4708c2792,-2529 4546,-6183 4546,-10248 0,-7637 -6190,-13827 -13827,-13827 -7636,0 -13827,6190 -13827,13827 0,7637 6191,13827 13827,13827l0 0 0 3183 0 0c-9394,0 -17010,-7616 -17010,-17010 0,-9395 7616,-17010 17010,-17010z"/>
    <path class="fil2" d="M12396 13074l9229 0c139,0 254,115 254,254l0 1063c0,139 -115,254 -254,254l-9229 0c-140,0 -254,-115 -254,-254l0 -1063c0,-139 114,-254 254,-254zm0 6281l9229 0c139,0 254,115 254,254l0 1063c0,139 -115,254 -254,254l-9229 0c-140,0 -254,-115 -254,-254l0 -1063c0,-139 114,-254 254,-254zm0 -3140l9229 0c139,0 254,114 254,254l0 1062c0,140 -115,254 -254,254l-9229 0c-140,0 -254,-114 -254,-254l0 -1062c0,-140 114,-254 254,-254z"/>
   </g>
   <path class="fil3" d="M100901 12172c-15,-358 -114,-647 -296,-867 -183,-220 -438,-330 -766,-330 -373,0 -657,104 -850,313 -194,209 -310,504 -347,884l2259 0zm-2270 1107c29,448 186,772 469,973 284,202 657,302 1119,302 253,0 513,-24 777,-72 265,-49 517,-118 755,-207 82,149 153,328 213,537 59,208 93,432 100,671 -581,223 -1237,335 -1968,335 -537,0 -998,-74 -1382,-224 -384,-149 -697,-356 -939,-620 -242,-265 -421,-580 -537,-945 -116,-366 -173,-765 -173,-1197 0,-425 59,-824 179,-1197 119,-373 296,-697 531,-973 235,-276 526,-494 872,-655 347,-160 752,-240 1214,-240 403,0 761,71 1074,212 313,142 580,336 799,582 220,246 386,539 498,878 112,339 168,703 168,1091 0,141 -6,281 -17,419 -11,138 -24,248 -39,330l-3713 0z"/>
   <path class="fil3" d="M93509 7508c269,-45 533,-68 794,-68 254,0 515,23 783,68l0 5872c0,231 13,417 40,559 26,142 67,252 123,330 56,78 128,132 218,162 89,30 201,45 335,45 60,0 125,-4 196,-11 71,-8 140,-19 207,-34 82,306 123,604 123,895 0,60 0,114 0,162 0,49 -7,103 -22,162 -120,38 -263,64 -431,79 -168,15 -323,22 -464,22 -574,0 -1035,-158 -1382,-475 -346,-317 -520,-834 -520,-1549l0 -6219z"/>
   <path class="fil3" d="M90645 8928c-44,-254 -67,-503 -67,-749 0,-239 23,-489 67,-750 127,-22 263,-39 409,-50 145,-11 277,-17 397,-17 127,0 264,6 414,17 149,11 287,28 413,50 23,127 38,252 45,375 8,123 11,248 11,375 0,119 -3,242 -11,369 -7,126 -22,253 -45,380 -126,22 -262,37 -408,45 -145,7 -281,11 -408,11 -119,0 -254,-4 -403,-11 -149,-8 -287,-23 -414,-45zm235 2181l-749 0c-23,-97 -39,-199 -50,-307 -12,-109 -17,-211 -17,-308 0,-201 22,-399 67,-593l2304 0 0 5783c-268,45 -529,67 -783,67 -246,0 -503,-22 -772,-67l0 -4575z"/>
   <path class="fil3" d="M84430 7642l4564 0c45,223 67,451 67,682 0,246 -22,481 -67,705l-2931 0 0 1890 2327 0c45,239 67,470 67,694 0,238 -22,473 -67,704l-2327 0 0 3367c-283,45 -551,67 -805,67 -276,0 -552,-22 -828,-67l0 -8042z"/>
   <path class="fil3" d="M75131 15572l3378 -6543 -3087 0c-45,-224 -67,-451 -67,-683 0,-246 22,-481 67,-704l5391 0 90 134 -3345 6521 3177 0c45,224 67,451 67,682 0,246 -22,481 -67,705l-5526 0 -78 -112z"/>
   <path class="fil3" d="M70645 9901c112,-22 218,-39 319,-50 101,-11 211,-17 330,-17 112,0 222,8 330,22 108,15 214,34 319,56 22,38 43,92 61,163 19,70 36,145 51,223 15,79 28,157 39,235 11,79 20,144 28,196 164,-231 365,-438 604,-621 238,-183 537,-274 895,-274 74,0 160,4 257,11 97,8 168,19 212,34 15,74 26,160 34,257 7,97 11,198 11,302 0,127 -6,265 -17,414 -11,149 -31,291 -61,425 -82,-15 -174,-22 -274,-22 -101,0 -162,0 -185,0 -127,0 -268,13 -425,39 -156,26 -306,95 -447,207 -142,112 -259,279 -353,503 -93,224 -139,537 -139,940l0 2751c-135,23 -269,38 -403,45 -134,7 -265,11 -392,11 -126,0 -255,-4 -385,-11 -131,-7 -267,-22 -409,-45l0 -5794z"/>
   <path class="fil3" d="M65802 13279c29,448 186,772 469,973 284,202 656,302 1119,302 253,0 512,-24 777,-72 265,-49 517,-118 755,-207 82,149 153,328 213,537 59,208 93,432 100,671 -581,223 -1237,335 -1968,335 -537,0 -998,-74 -1382,-224 -384,-149 -697,-356 -939,-620 -243,-265 -422,-580 -537,-945 -116,-366 -173,-765 -173,-1197 0,-425 59,-824 179,-1197 119,-373 296,-697 531,-973 235,-276 526,-494 872,-655 347,-160 752,-240 1214,-240 403,0 760,71 1074,212 313,142 579,336 799,582 220,246 386,539 498,878 112,339 168,703 168,1091 0,141 -6,281 -17,419 -11,138 -24,248 -39,330l-3713 0zm2270 -1107c-15,-358 -114,-647 -296,-867 -183,-220 -438,-330 -766,-330 -373,0 -657,104 -851,313 -193,209 -309,504 -346,884l2259 0z"/>
   <path class="fil3" d="M54772 9901c105,-22 209,-39 313,-50 105,-11 220,-17 347,-17 127,0 239,6 336,17 97,11 197,28 302,50 22,38 43,91 61,162 19,71 36,146 51,224 15,78 28,155 39,229 11,75 20,138 28,191 59,-112 138,-224 235,-336 97,-112 212,-213 346,-302 135,-90 286,-162 453,-218 168,-56 356,-84 565,-84 903,0 1480,343 1734,1029 149,-276 360,-516 632,-721 272,-205 617,-308 1035,-308 656,0 1139,181 1448,542 310,362 464,927 464,1695l0 3680c-268,45 -533,67 -794,67 -261,0 -526,-22 -794,-67l0 -3266c0,-403 -50,-712 -151,-928 -101,-217 -304,-325 -610,-325 -126,0 -251,19 -374,56 -123,37 -235,106 -336,207 -101,101 -183,242 -246,425 -63,183 -95,419 -95,710l0 3121c-268,45 -533,67 -794,67 -261,0 -526,-22 -794,-67l0 -3266c0,-403 -51,-712 -151,-928 -101,-217 -304,-325 -610,-325 -127,0 -254,19 -380,56 -127,37 -241,110 -341,218 -101,108 -181,259 -241,453 -60,194 -89,448 -89,761l0 3031c-269,45 -534,67 -795,67 -261,0 -525,-22 -794,-67l0 -5783z"/>
   <path class="fil3" d="M52154 11881c0,-179 -29,-324 -89,-436 -60,-112 -142,-200 -246,-263 -105,-63 -233,-106 -386,-129 -153,-22 -323,-33 -509,-33 -403,0 -831,78 -1286,235 -105,-194 -183,-377 -235,-548 -52,-172 -78,-377 -78,-616 328,-112 656,-194 984,-246 328,-52 634,-78 917,-78 775,0 1381,186 1818,559 436,373 654,970 654,1790l0 3356c-261,82 -578,160 -951,234 -373,75 -794,112 -1264,112 -380,0 -729,-33 -1046,-100 -316,-68 -589,-179 -816,-336 -227,-157 -403,-358 -526,-604 -123,-246 -184,-548 -184,-906 0,-358 76,-658 229,-900 153,-243 350,-437 593,-582 242,-146 512,-250 811,-313 298,-64 596,-95 895,-95 216,0 454,11 715,33l0 -134zm0 1152c-89,-15 -186,-28 -290,-39 -105,-11 -198,-17 -280,-17 -365,0 -654,65 -867,196 -212,130 -319,341 -319,632 0,194 41,343 123,447 82,105 181,181 297,230 115,48 238,78 369,89 130,11 244,17 341,17 112,0 224,-10 336,-28 111,-19 208,-36 290,-50l0 -1477z"/>
   <path class="fil3" d="M46215 11512c276,-45 544,-67 805,-67 261,0 533,22 817,67l0 3948c-388,142 -792,237 -1214,286 -421,48 -788,72 -1102,72 -656,0 -1230,-102 -1722,-307 -492,-205 -902,-493 -1231,-862 -327,-369 -574,-807 -738,-1314 -164,-507 -246,-1059 -246,-1655 0,-597 86,-1151 258,-1661 171,-511 419,-953 743,-1326 325,-373 724,-664 1197,-872 474,-209 1012,-313 1616,-313 358,0 692,22 1002,67 309,44 632,138 967,279 -15,224 -60,442 -134,655 -75,212 -157,427 -246,643 -261,-90 -492,-153 -694,-190 -201,-38 -440,-56 -716,-56 -716,0 -1265,233 -1649,699 -385,466 -576,1157 -576,2075 0,917 190,1601 570,2052 380,451 939,677 1678,677 127,0 240,-8 341,-22 101,-15 192,-30 274,-45l0 -2830z"/>
   <path class="fil4" d="M80762 20541c112,-23 218,-40 319,-51 101,-11 211,-17 330,-17 112,0 222,8 330,23 108,15 214,33 319,56 22,37 43,91 61,162 19,71 36,145 51,224 15,78 28,156 39,235 11,78 20,143 28,195 164,-231 365,-438 604,-621 239,-182 537,-274 895,-274 74,0 160,4 257,12 97,7 168,18 212,33 15,75 27,161 34,257 7,97 11,198 11,302 0,127 -5,265 -17,414 -11,149 -31,291 -61,425 -82,-15 -173,-22 -274,-22 -101,0 -162,0 -185,0 -126,0 -268,13 -425,39 -156,26 -305,95 -447,207 -142,112 -259,280 -353,503 -93,224 -139,537 -139,940l0 2752c-135,22 -269,37 -403,44 -134,8 -265,12 -392,12 -126,0 -255,-4 -385,-12 -131,-7 -267,-22 -409,-44l0 -5794z"/>
   <path class="fil4" d="M78222 22811c-15,-358 -114,-647 -297,-867 -182,-220 -438,-330 -766,-330 -373,0 -656,105 -850,314 -194,208 -309,503 -347,883l2260 0zm-2271 1108c30,447 187,771 470,973 283,201 656,302 1119,302 253,0 512,-25 777,-73 265,-48 516,-118 755,-207 82,149 153,328 213,537 59,209 93,432 100,671 -582,224 -1238,336 -1969,336 -536,0 -997,-75 -1381,-224 -384,-149 -697,-356 -940,-621 -242,-265 -421,-580 -536,-945 -116,-365 -174,-764 -174,-1197 0,-425 60,-824 179,-1197 120,-373 297,-697 531,-973 235,-276 526,-494 873,-654 347,-161 751,-241 1214,-241 402,0 760,71 1073,213 314,142 580,335 800,582 220,246 386,538 498,878 112,339 168,702 168,1090 0,142 -6,282 -17,420 -11,138 -24,248 -39,330l-3714 0z"/>
   <path class="fil4" d="M70137 20541c112,-23 219,-40 319,-51 101,-11 211,-17 330,-17 112,0 222,8 330,23 108,15 215,33 319,56 22,37 43,91 62,162 18,71 35,145 50,224 15,78 28,156 39,235 11,78 21,143 28,195 164,-231 365,-438 604,-621 239,-182 537,-274 895,-274 74,0 160,4 257,12 97,7 168,18 213,33 14,75 26,161 33,257 8,97 11,198 11,302 0,127 -5,265 -17,414 -11,149 -31,291 -61,425 -82,-15 -173,-22 -274,-22 -101,0 -162,0 -185,0 -126,0 -268,13 -425,39 -156,26 -305,95 -447,207 -142,112 -259,280 -352,503 -94,224 -140,537 -140,940l0 2752c-134,22 -269,37 -403,44 -134,8 -265,12 -391,12 -127,0 -256,-4 -386,-12 -131,-7 -267,-22 -409,-44l0 -5794z"/>
   <path class="fil4" d="M66318 25250c418,0 718,-155 901,-465 182,-309 274,-755 274,-1336 0,-582 -92,-1027 -274,-1337 -183,-309 -483,-464 -901,-464 -410,0 -706,155 -889,464 -183,310 -274,755 -274,1337 0,581 91,1027 274,1336 183,310 479,465 889,465zm0 1208c-470,0 -878,-77 -1225,-230 -346,-153 -633,-365 -861,-637 -227,-272 -399,-591 -514,-957 -116,-365 -174,-760 -174,-1185 0,-425 58,-824 174,-1197 115,-373 287,-695 514,-968 228,-272 515,-486 861,-643 347,-156 755,-235 1225,-235 470,0 880,79 1231,235 350,157 641,371 872,643 231,273 403,595 515,968 111,373 167,772 167,1197 0,425 -56,820 -167,1185 -112,366 -284,685 -515,957 -231,272 -522,484 -872,637 -351,153 -761,230 -1231,230z"/>
   <path class="fil4" d="M60055 18147c268,-45 533,-67 794,-67 254,0 515,22 783,67l0 5872c0,231 13,418 39,560 26,141 68,251 123,330 56,78 129,132 219,162 89,29 201,44 335,44 60,0 125,-3 196,-11 71,-7 140,-18 207,-33 82,305 123,604 123,894 0,60 0,114 0,163 0,48 -8,102 -23,162 -119,37 -262,63 -430,78 -168,15 -323,23 -464,23 -575,0 -1035,-159 -1382,-476 -347,-317 -520,-833 -520,-1549l0 -6219z"/>
   <path class="fil4" d="M55167 25093c201,60 432,90 693,90 462,0 817,-150 1063,-448 246,-298 369,-749 369,-1353 0,-232 -19,-446 -56,-644 -37,-197 -101,-367 -190,-508 -90,-142 -203,-254 -341,-336 -138,-82 -308,-123 -509,-123 -187,0 -345,35 -476,106 -130,71 -236,168 -318,291 -83,123 -142,267 -180,431 -37,164 -55,339 -55,525l0 1969zm-1589 -4564c105,-22 207,-37 308,-44 101,-8 214,-12 341,-12 209,0 421,23 638,68 22,37 42,91 61,162 19,71 37,147 56,229 19,82 34,162 45,241 11,78 20,143 28,195 67,-119 149,-237 246,-352 97,-116 214,-218 352,-308 138,-89 293,-162 464,-218 172,-56 362,-84 571,-84 320,0 621,60 900,179 280,120 524,300 733,543 209,242 371,546 486,911 116,366 174,798 174,1298 0,485 -71,919 -213,1303 -141,384 -346,710 -615,979 -268,268 -596,475 -984,621 -388,145 -828,218 -1320,218 -127,0 -252,-6 -375,-17 -123,-11 -225,-24 -307,-39l0 2572c-142,23 -278,38 -409,45 -130,8 -259,11 -386,11 -126,0 -255,-3 -385,-11 -131,-7 -267,-22 -409,-45l0 -8445z"/>
   <path class="fil4" d="M49931 23370l895 -2829c276,-45 563,-68 861,-68 276,0 549,23 817,68l-1119 2796 1332 2986c-291,45 -567,68 -828,68 -261,0 -526,-23 -794,-68l-1164 -2953zm-1532 -33l-1107 -2796c246,-45 518,-68 816,-68 283,0 571,23 861,68l884 2829 -1152 2953c-268,45 -533,68 -794,68 -261,0 -537,-23 -828,-68l1320 -2986z"/>
   <path class="fil4" d="M41592 18281l4564 0c44,224 67,451 67,682 0,246 -23,481 -67,705l-2931 0 0 1745 2327 0c44,239 67,470 67,694 0,238 -23,473 -67,704l-2327 0 0 2125 3009 0c45,224 67,452 67,683 0,246 -22,481 -67,704l-4642 0 0 -8042z"/>
  </g>
 </g>
</svg>
