<?xml version="1.0" encoding="UTF-8"?>
<!DOCTYPE svg PUBLIC "-//W3C//DTD SVG 1.1//EN" "http://www.w3.org/Graphics/SVG/1.1/DTD/svg11.dtd">
<!-- Creator: CorelDRAW X7 -->
<svg xmlns="http://www.w3.org/2000/svg" xml:space="preserve" width="144px" height="144px" version="1.1" style="shape-rendering:geometricPrecision; text-rendering:geometricPrecision; image-rendering:optimizeQuality; fill-rule:evenodd; clip-rule:evenodd"
viewBox="0 0 14400 14400"
 xmlns:xlink="http://www.w3.org/1999/xlink">
 <defs>
  <style type="text/css">
   <![CDATA[
    .fil2 {fill:#FEFEFE}
    .fil0 {fill:#BDBFC1}
    .fil1 {fill:#FEBF2C}
   ]]>
  </style>
 </defs>
 <g id="Layer_x0020_1">
  <metadata id="CorelCorpID_0Corel-Layer"/>
  <g id="_240501592">
   <path class="fil0" d="M7200 2429c2635,0 4771,2136 4771,4771 0,19 0,37 0,56l0 6c0,36 -1,72 -2,108l-1 15c-1,33 -3,66 -5,98l-2 33c-2,27 -4,55 -6,82 -1,19 -3,37 -5,56 -2,20 -4,39 -6,59 -2,24 -5,47 -8,71 -2,14 -3,29 -5,43 -4,26 -7,51 -11,76l-6 39c-4,28 -9,54 -13,81l-6 32c-5,29 -11,58 -17,87l-5 28c-7,30 -13,61 -20,91l-6 25c-8,33 -15,66 -24,99l-4 14c-8,34 -17,68 -27,102l-3 12c-10,33 -20,67 -30,100l-4 11c-10,34 -21,67 -32,100l-4 12c-11,33 -23,66 -35,98l-4 11c-12,33 -25,66 -38,99l-3 8c-13,34 -27,68 -41,102l-2 4c-725,1712 -2420,2913 -4396,2913l-2 0c-40,0 -81,0 -121,-1l0 0c-2578,-65 -4648,-2176 -4648,-4770 0,-2635 2136,-4771 4771,-4771z"/>
   <path class="fil1" d="M7200 0c3976,0 7200,3224 7200,7200 0,58 -1,116 -2,174l0 17c-2,55 -4,110 -7,164l-1 27c-3,53 -6,105 -10,158l-2 29c-4,52 -9,105 -14,157l-3 26c-5,54 -11,107 -18,160l-3 18c-6,53 -14,106 -22,159l-1 10c-8,53 -17,106 -27,159l-4 25c-9,50 -19,100 -29,150l-6 32c-10,49 -21,97 -32,145l-8 35c-11,48 -23,95 -35,142 -2,11 -5,22 -8,33 -13,48 -25,96 -39,143 -3,10 -5,19 -8,28 -12,43 -25,86 -38,129 -3,10 -6,20 -9,30 -15,45 -30,91 -45,136 -4,12 -8,25 -12,37 -15,43 -30,86 -45,129 -6,15 -11,30 -17,44 -15,42 -31,83 -47,124 -6,15 -12,30 -18,46 -16,40 -32,81 -49,121 -7,15 -13,30 -19,44 -15,35 -30,70 -46,105 -9,19 -18,39 -27,59 -14,31 -29,62 -43,94 -10,20 -20,40 -29,60 -16,32 -32,63 -48,95 -9,18 -19,37 -28,56 -18,34 -36,68 -54,102 -11,19 -21,39 -32,58 -18,33 -36,66 -55,99 -11,20 -23,39 -34,59 -15,25 -29,50 -44,75 -17,27 -33,55 -50,82 -12,20 -25,40 -38,61 -19,30 -39,60 -58,91 -13,18 -25,37 -37,56 -22,32 -43,64 -65,96 -12,16 -23,33 -35,49 -23,33 -46,66 -70,99 -12,16 -23,31 -34,47 -17,23 -34,45 -52,68 -9,13 -20,27 -30,40 -27,35 -55,70 -82,105 -9,11 -17,21 -25,31 -30,37 -61,75 -92,111l-23 28c-33,39 -66,77 -100,115l-18 21c-37,41 -74,81 -111,121l-13 14c-106,113 -216,223 -329,329l-8 7c-43,40 -86,79 -130,118l-10 9c-22,20 -44,39 -66,58l0 0 0 0 -16 14 0 0 -16 14 0 0 -16 13 0 0 -16 14 0 0 -16 13 0 0 -16 14 0 0 -16 13 0 0 -16 14 0 0 -17 13 0 0 -32 27 0 0c-11,9 -22,18 -33,26l0 0 -17 13 0 0 -2 2 -29 23 -2 2 0 0 -2 1 -31 25 0 0 -17 13 0 0 -17 12 0 0 -16 13 0 0 -17 13 0 0 -17 13 0 0 -17 12 0 0 -17 13 0 0 -17 13 0 0 -17 12 0 0 -2 2 -29 21 -3 2 0 0 -3 2 -31 23 0 0 -34 24 -1 0c-17,12 -34,25 -51,37l0 0 -18 12 0 0 -17 12 0 0 -18 12 0 0 -17 12 0 0 -18 11 0 0 -17 12 0 0 -18 12 0 0 -17 12 0 0 -18 11 0 0 -18 12 0 0 -17 11 0 0 -18 12 0 0 -18 11 0 0 -18 12 0 0 -18 11 0 0 -18 11 0 0 -17 12 0 0 -18 11 -1 0 -18 11 0 0 -18 11 0 0 -18 11 0 0 -18 11 0 0 -18 11 0 0 -18 11 0 0 -18 11 0 0 -19 10 0 0 -18 11 0 0 -18 11 0 0 -2167 -3095c-438,202 -926,314 -1440,314 -1907,0 -3452,-1545 -3452,-3452 0,-1907 1545,-3452 3452,-3452 1907,0 3452,1545 3452,3452 0,905 -349,1729 -919,2345l1395 1993c1182,-1071 1925,-2618 1925,-4338 0,-3232 -2621,-5853 -5853,-5853 -3232,0 -5853,2621 -5853,5853 0,3232 2621,5853 5853,5853l0 0 0 1347 0 0c-3976,0 -7200,-3224 -7200,-7200 0,-3976 3224,-7200 7200,-7200z"/>
   <path class="fil2" d="M5247 5538l3906 0c59,0 108,49 108,108l0 450c0,59 -49,107 -108,107l-3906 0c-59,0 -108,-48 -108,-107l0 -450c0,-59 49,-108 108,-108zm0 2659l3906 0c59,0 108,48 108,107l0 450c0,59 -49,108 -108,108l-3906 0c-59,0 -108,-49 -108,-108l0 -450c0,-59 49,-107 108,-107zm0 -1329l3906 0c59,0 108,48 108,107l0 450c0,59 -49,107 -108,107l-3906 0c-59,0 -108,-48 -108,-107l0 -450c0,-59 49,-107 108,-107z"/>
  </g>
 </g>
</svg>
