<?xml version="1.0" encoding="UTF-8"?>
<!DOCTYPE svg PUBLIC "-//W3C//DTD SVG 1.1//EN" "http://www.w3.org/Graphics/SVG/1.1/DTD/svg11.dtd">
<!-- Creator: CorelDRAW X7 -->
<svg xmlns="http://www.w3.org/2000/svg" xml:space="preserve" width="256px" height="256px" version="1.1" style="shape-rendering:geometricPrecision; text-rendering:geometricPrecision; image-rendering:optimizeQuality; fill-rule:evenodd; clip-rule:evenodd"
viewBox="0 0 25600 25600"
 xmlns:xlink="http://www.w3.org/1999/xlink">
 <defs>
  <style type="text/css">
   <![CDATA[
    .fil2 {fill:#FEFEFE}
    .fil0 {fill:#BDBEBF}
    .fil1 {fill:#FC8835}
   ]]>
  </style>
 </defs>
 <g id="Layer_x0020_1">
  <metadata id="CorelCorpID_0Corel-Layer"/>
  <g id="_352360640">
   <path class="fil0" d="M12800 4318c4685,0 8482,3797 8482,8482 0,33 0,66 0,99l0 11c-1,65 -3,128 -5,192l-1 28c-2,58 -5,116 -8,174l-4 58c-3,49 -7,97 -11,146 -2,33 -5,66 -8,99 -4,35 -7,70 -11,105 -5,42 -9,84 -14,125 -4,26 -7,52 -10,78 -6,45 -12,90 -19,135l-11 70c-7,48 -15,96 -23,144l-10 57c-10,51 -20,102 -30,153l-10 50c-11,54 -23,108 -35,162l-11 45c-13,59 -27,117 -42,175l-7 26c-15,60 -32,121 -49,181l-6 21c-17,60 -35,119 -53,179l-6 19c-19,59 -38,119 -58,178l-7 20c-20,59 -40,117 -62,176l-6 18c-22,59 -45,118 -68,177l-5 14c-24,60 -49,121 -74,181l-3 6c-1288,3044 -4302,5179 -7815,5180l-3 0c-72,0 -144,0 -216,-2l0 0c-4584,-116 -8263,-3868 -8263,-8480 0,-4685 3797,-8482 8482,-8482z"/>
   <path class="fil1" d="M12800 0c7069,0 12800,5731 12800,12800 0,103 -1,206 -4,309l0 31c-3,97 -7,194 -12,291l-2 47c-5,94 -11,188 -18,282l-4 51c-7,93 -15,187 -24,279l-5 47c-10,95 -21,190 -33,284l-4 32c-12,94 -25,189 -40,283l-2 18c-15,95 -31,189 -47,283l-8 44c-16,89 -33,178 -51,267l-12 57c-17,86 -36,172 -55,257l-15 62c-20,85 -40,169 -62,254 -5,19 -10,39 -15,58 -22,85 -45,170 -69,255 -4,16 -9,32 -14,48 -22,77 -45,154 -68,231 -6,17 -11,35 -17,52 -25,81 -51,162 -78,242 -7,22 -15,44 -22,65 -26,77 -53,154 -81,230 -9,26 -19,53 -29,79 -27,73 -55,146 -83,219 -11,28 -22,55 -32,82 -29,72 -58,144 -89,216 -11,26 -22,52 -33,78 -27,62 -54,124 -81,186 -16,35 -32,70 -48,105 -26,56 -52,111 -78,167 -17,35 -34,71 -51,107 -28,56 -56,112 -84,168 -17,34 -34,67 -51,101 -31,60 -63,121 -96,181 -18,34 -37,69 -56,104 -32,58 -65,116 -98,174 -20,36 -40,71 -61,106 -26,45 -52,89 -79,134 -29,48 -58,96 -88,144 -22,37 -45,73 -67,109 -35,54 -69,108 -104,161 -22,34 -43,67 -66,100 -38,57 -76,114 -115,171 -21,29 -41,59 -61,88 -42,59 -84,117 -126,176 -20,27 -40,55 -61,83 -30,40 -60,81 -91,121 -17,24 -35,47 -53,71 -49,63 -98,125 -147,188 -15,18 -30,36 -44,54 -54,66 -108,133 -163,198l-42 49c-58,69 -117,137 -177,205l-33 36c-65,73 -131,145 -197,217l-22 23c-189,201 -385,396 -586,585l-14 13c-76,71 -152,140 -230,209l-19 17c-39,35 -78,69 -117,102l1 1 0 0 -29 25 0 0 -28 24 0 0 -29 24 0 0 -28 24 0 0 -29 25 0 0 -29 24 0 0 -28 24 0 0 -29 24 0 0 -29 23 0 0 -58 48 0 0c-20,15 -39,31 -59,47l0 0 -29 23 0 0 -4 3 -51 41 -4 3 0 0 -4 2 -55 44 0 0 -30 23 0 0 -30 23 0 0 -29 22 0 0 -30 23 0 0 -30 23 0 0 -30 22 0 0 -30 23 0 0 -30 22 0 0 -31 22 0 0 -4 4 -51 37 -5 4 0 0 -5 3 -56 40 0 0 -61 44 0 0c-31,22 -62,43 -92,65l0 0 -31 21 0 0 -31 22 0 0 -31 21 0 0 -31 21 0 0 -31 21 0 0 -32 21 0 0 -31 21 0 0 -31 21 0 0 -32 20 0 0 -31 21 0 0 -32 20 0 0 -31 21 0 0 -32 20 0 0 -32 20 0 0 -31 20 0 0 -32 21 0 0 -32 20 0 0 -32 19 0 0 -32 20 0 0 -32 20 0 0 -32 19 0 0 -32 20 0 0 -33 19 0 0 -32 20 0 0 -32 19 0 0 -33 19 0 0 -32 19 0 0 -33 19 0 0 -3852 -5501c-779,358 -1646,558 -2560,558 -3389,0 -6137,-2748 -6137,-6137 0,-3389 2748,-6137 6137,-6137 3389,0 6137,2748 6137,6137 0,1610 -620,3074 -1634,4169l2481 3543c2101,-1904 3421,-4653 3421,-7712 0,-5746 -4659,-10405 -10405,-10405 -5746,0 -10405,4659 -10405,10405 0,5746 4659,10405 10405,10405l0 0 0 2395 0 0c-7069,0 -12800,-5731 -12800,-12800 0,-7069 5731,-12800 12800,-12800z"/>
   <path class="fil2" d="M9328 9846l6944 0c105,0 191,86 191,191l0 800c0,105 -86,191 -191,191l-6944 0c-105,0 -191,-86 -191,-191l0 -800c0,-105 86,-191 191,-191zm0 4726l6944 0c105,0 191,86 191,192l0 799c0,105 -86,191 -191,191l-6944 0c-105,0 -191,-86 -191,-191l0 -799c0,-106 86,-192 191,-192zm0 -2363l6944 0c105,0 191,86 191,191l0 800c0,105 -86,191 -191,191l-6944 0c-105,0 -191,-86 -191,-191l0 -800c0,-105 86,-191 191,-191z"/>
  </g>
 </g>
</svg>
