<?xml version="1.0" encoding="UTF-8"?>
<!DOCTYPE svg PUBLIC "-//W3C//DTD SVG 1.1//EN" "http://www.w3.org/Graphics/SVG/1.1/DTD/svg11.dtd">
<!-- Creator: CorelDRAW X7 -->
<svg xmlns="http://www.w3.org/2000/svg" xml:space="preserve" width="48px" height="48px" version="1.1" style="shape-rendering:geometricPrecision; text-rendering:geometricPrecision; image-rendering:optimizeQuality; fill-rule:evenodd; clip-rule:evenodd"
viewBox="0 0 4800 4800"
 xmlns:xlink="http://www.w3.org/1999/xlink">
 <defs>
  <style type="text/css">
   <![CDATA[
    .fil2 {fill:#FEFEFE}
    .fil0 {fill:#BDBFC1}
    .fil1 {fill:#FEBF2C}
   ]]>
  </style>
 </defs>
 <g id="Layer_x0020_1">
  <metadata id="CorelCorpID_0Corel-Layer"/>
  <g id="_238599504">
   <path class="fil0" d="M2400 809c878,0 1591,713 1591,1591 0,6 0,12 -1,19l0 2c0,12 0,24 0,36l-1 5c0,11 -1,22 -1,32l-1 11c0,9 -1,19 -2,28 0,6 -1,12 -2,18 0,7 -1,14 -2,20 0,8 -1,16 -2,24 -1,4 -1,9 -2,14 -1,9 -2,17 -4,25l-2 13c-1,10 -3,19 -4,28l-2 10c-2,10 -4,19 -6,29l-1 9c-2,10 -5,21 -7,31l-2 8c-3,11 -5,22 -8,33l-1 5c-3,11 -6,22 -9,34l-1 4c-4,11 -7,22 -10,33l-2 4c-3,11 -7,22 -10,33l-2 4c-3,11 -7,22 -11,33l-2 3c-4,11 -8,22 -12,33l-1 3c-5,11 -9,23 -14,34l-1 1c-241,571 -806,971 -1465,972l0 0c-14,0 -28,-1 -41,-1l0 0c-860,-22 -1550,-725 -1550,-1590 0,-878 713,-1591 1591,-1591z"/>
   <path class="fil1" d="M2400 0c1325,0 2400,1075 2400,2400 0,19 0,39 -1,58l0 6c0,18 -1,36 -2,54l0 9c-1,18 -2,35 -4,53l0 10c-2,17 -3,35 -5,52l-1 9c-2,18 -4,35 -6,53l-1 6c-2,18 -4,35 -7,53l-1 3c-2,18 -5,36 -8,53l-2 9c-3,16 -6,33 -9,50l-3 10c-3,17 -6,33 -10,49l-3 11c-4,16 -7,32 -11,48 -1,3 -2,7 -3,11 -5,16 -9,32 -13,47 -1,4 -2,7 -3,10 -4,14 -8,29 -13,43 -1,3 -2,6 -3,10 -5,15 -9,30 -14,45 -2,4 -3,8 -5,12 -5,15 -10,29 -15,43 -1,5 -3,10 -5,15 -5,14 -10,28 -16,41 -2,5 -4,11 -6,16 -5,13 -11,27 -16,40 -2,5 -5,10 -7,15 -5,11 -10,23 -15,35 -3,6 -6,13 -9,19 -5,11 -10,21 -14,31 -4,7 -7,14 -10,21 -5,10 -10,21 -16,31 -3,6 -6,13 -9,19 -6,11 -12,23 -18,34 -4,7 -7,13 -11,20 -6,11 -12,21 -18,32 -4,7 -8,13 -12,20 -5,8 -9,17 -14,25 -6,9 -11,18 -17,27 -4,7 -8,14 -13,21 -6,10 -13,20 -19,30 -4,6 -8,12 -12,19 -8,10 -15,21 -22,32 -4,5 -8,11 -11,16 -8,11 -16,22 -24,33 -4,5 -8,11 -11,16 -6,7 -12,15 -17,22 -4,5 -7,9 -10,14 -10,11 -19,23 -28,35 -3,3 -6,7 -8,10 -10,12 -21,25 -31,37l-8 10c-11,12 -22,25 -33,38l-6 7c-12,13 -25,27 -37,40l-4 5c-36,37 -72,74 -110,109l-3 3c-14,13 -28,26 -43,39l-3 3c-8,7 -15,13 -22,19l0 0 0 0 -5 5 0 0 -6 5 0 0 -5 4 0 0 -6 5 0 0 -5 4 0 0 -5 5 0 0 -6 4 0 0 -5 5 0 0 -5 4 0 0 -11 9 0 0c-4,3 -8,6 -11,9l0 0 -6 4 0 0 0 1 -10 7 -1 1 0 0 -1 0 -10 9 0 0 -6 4 0 0 -5 4 0 0 -6 4 0 0 -5 5 0 0 -6 4 0 0 -6 4 0 0 -5 4 0 0 -6 5 0 0 -6 4 0 0 0 0 -10 7 -1 1 0 0 -1 1 -10 7 0 0 -12 9 0 0c-5,4 -11,8 -17,12l0 0 -6 4 0 0 -6 4 0 0 -6 4 0 0 -5 4 0 0 -6 4 0 0 -6 3 0 0 -6 4 0 0 -6 4 0 0 -6 4 0 0 -6 4 0 0 -5 4 0 0 -6 4 0 0 -6 4 0 0 -6 3 0 0 -6 4 0 0 -6 4 0 0 -6 4 0 0 -6 3 0 0 -6 4 0 0 -6 4 0 0 -6 3 0 0 -6 4 0 0 -6 4 0 0 -6 3 0 0 -6 4 0 0 -7 3 0 0 -6 4 0 0 -6 4 0 0 -722 -1032c-146,67 -309,105 -480,105 -636,0 -1151,-515 -1151,-1151 0,-636 515,-1151 1151,-1151 636,0 1151,515 1151,1151 0,302 -117,577 -307,782l466 664c393,-357 641,-873 641,-1446 0,-1077 -874,-1951 -1951,-1951 -1077,0 -1951,874 -1951,1951 0,1077 874,1951 1951,1951l0 0 0 449 0 0c-1325,0 -2400,-1075 -2400,-2400 0,-1325 1075,-2400 2400,-2400z"/>
   <path class="fil2" d="M1749 1846l1302 0c20,0 36,16 36,36l0 150c0,20 -16,36 -36,36l-1302 0c-20,0 -36,-16 -36,-36l0 -150c0,-20 16,-36 36,-36zm0 886l1302 0c20,0 36,16 36,36l0 150c0,20 -16,36 -36,36l-1302 0c-20,0 -36,-16 -36,-36l0 -150c0,-20 16,-36 36,-36zm0 -443l1302 0c20,0 36,16 36,36l0 150c0,20 -16,36 -36,36l-1302 0c-20,0 -36,-16 -36,-36l0 -150c0,-20 16,-36 36,-36z"/>
  </g>
 </g>
</svg>
