<?xml version="1.0" encoding="UTF-8"?>
<!DOCTYPE svg PUBLIC "-//W3C//DTD SVG 1.1//EN" "http://www.w3.org/Graphics/SVG/1.1/DTD/svg11.dtd">
<!-- Creator: CorelDRAW X7 -->
<svg xmlns="http://www.w3.org/2000/svg" xml:space="preserve" width="512px" height="512px" version="1.1" style="shape-rendering:geometricPrecision; text-rendering:geometricPrecision; image-rendering:optimizeQuality; fill-rule:evenodd; clip-rule:evenodd"
viewBox="0 0 51200 51200"
 xmlns:xlink="http://www.w3.org/1999/xlink">
 <defs>
  <style type="text/css">
   <![CDATA[
    .fil2 {fill:#FEFEFE}
    .fil0 {fill:#BDBFC1}
    .fil1 {fill:#FEBF2C}
   ]]>
  </style>
 </defs>
 <g id="Layer_x0020_1">
  <metadata id="CorelCorpID_0Corel-Layer"/>
  <g id="_240498928">
   <path class="fil0" d="M25600 8635c9369,0 16965,7596 16965,16965 0,66 0,132 -1,198l0 23c-2,128 -5,256 -10,383l-2 55c-4,117 -10,233 -17,349l-7 115c-6,98 -13,196 -21,293 -6,66 -12,132 -18,198 -7,70 -14,140 -21,210 -9,84 -19,168 -29,251 -6,52 -13,104 -19,156 -12,89 -25,179 -38,268l-21 141c-15,96 -31,192 -48,287l-20 114c-18,103 -38,205 -59,307l-20 100c-22,108 -46,216 -70,324l-21 91c-27,117 -56,233 -85,349l-14 51c-31,121 -63,242 -97,362l-13 42c-34,120 -69,240 -106,358l-12 39c-38,119 -76,237 -115,355l-15 41c-40,118 -81,235 -123,351l-13 37c-44,118 -89,236 -135,354l-11 27c-48,122 -97,243 -148,363l-6 13c-2577,6087 -8604,10358 -15630,10360l-5 0c-145,0 -289,-2 -433,-5l0 0c-9167,-233 -16527,-7737 -16527,-16960 0,-9369 7596,-16965 16965,-16965z"/>
   <path class="fil1" d="M25600 0c14139,0 25600,11461 25600,25600 0,207 -3,413 -8,619l-1 61c-5,195 -13,389 -22,582l-5 94c-9,189 -22,377 -35,564l-8 102c-15,187 -31,373 -50,559l-10 94c-19,189 -41,378 -65,567l-8 63c-24,190 -51,379 -79,567l-5 35c-29,190 -61,379 -94,567l-16 88c-32,178 -66,356 -102,534l-23 114c-36,172 -73,343 -112,514l-29 124c-39,170 -80,339 -123,507 -10,39 -21,78 -31,117 -44,170 -90,340 -138,509 -9,33 -19,65 -28,97 -44,155 -90,308 -137,461 -11,35 -21,70 -32,105 -51,162 -103,323 -157,484 -15,43 -29,87 -44,131 -52,154 -106,306 -162,459 -19,52 -38,105 -57,158 -54,146 -110,293 -167,438 -22,55 -43,110 -65,164 -58,145 -116,288 -176,431 -22,53 -45,105 -67,157 -53,125 -108,248 -163,372 -31,70 -63,140 -95,211 -51,111 -103,222 -156,332 -34,72 -68,143 -102,214 -55,113 -111,226 -168,338 -34,67 -68,134 -102,201 -63,121 -127,241 -191,361 -38,70 -75,139 -113,209 -64,117 -129,233 -195,349 -41,71 -82,141 -123,212 -52,89 -104,178 -157,266 -58,97 -117,194 -176,290 -45,72 -90,145 -136,217 -68,108 -137,216 -207,323 -43,66 -87,133 -131,199 -76,114 -154,228 -232,342 -40,58 -81,117 -121,175 -83,118 -167,236 -252,352 -40,56 -80,111 -121,167 -60,81 -121,162 -182,243 -36,47 -72,93 -108,140 -97,126 -195,252 -294,376 -29,36 -58,73 -87,109 -108,133 -217,265 -327,396l-83 99c-117,137 -235,273 -354,408l-65 74c-131,145 -262,290 -396,432l-43 47c-378,403 -769,793 -1172,1170l-27 25c-152,142 -306,282 -461,420l-38 34c-77,68 -155,136 -233,204l0 1 0 0 -56 49 0 0 -57 49 0 0 -57 48 0 0 -57 49 -1 0 -57 48 0 0 -57 48 0 0 -58 48 0 0 -58 48 0 0 -58 48 0 0 -116 94 0 0c-39,32 -78,63 -117,94l0 0 -58 47 0 0 -7 6 -104 82 -7 5 0 0 -7 6 -111 87 0 0 -59 45 0 0 -60 46 0 0 -60 46 0 0 -59 45 0 0 -60 45 0 0 -60 45 0 0 -60 45 0 0 -61 45 0 0 -60 45 0 0 -9 6 -103 75 -9 7 0 0 -10 7 -112 81 0 0 -122 87 0 0c-62,44 -123,87 -185,130l0 0 -61 42 0 0 -62 43 0 0 -62 43 0 0 -62 42 0 0 -63 42 0 0 -62 42 0 0 -63 42 0 0 -62 41 0 0 -63 41 0 0 -63 42 0 0 -63 41 0 0 -63 41 0 0 -64 40 0 0 -63 41 0 0 -64 40 0 0 -63 40 0 0 -64 40 0 0 -64 40 0 0 -64 39 0 0 -64 40 0 0 -64 39 0 0 -65 39 0 0 -64 39 0 0 -65 38 0 1 -65 38 0 0 -65 38 0 0 -65 38 0 0 -65 38 0 0 -7704 -11003c-1558,717 -3292,1117 -5120,1117 -6779,0 -12274,-5495 -12274,-12274 0,-6779 5495,-12274 12274,-12274 6779,0 12274,5495 12274,12274 0,3219 -1240,6149 -3268,8338l4961 7086c4202,-3807 6843,-9307 6843,-15424 0,-11493 -9317,-20810 -20810,-20810 -11493,0 -20810,9317 -20810,20810 0,11493 9317,20810 20810,20810l0 0 0 4790 0 0c-14139,0 -25600,-11461 -25600,-25600 0,-14139 11461,-25600 25600,-25600z"/>
   <path class="fil2" d="M18655 19692l13890 0c210,0 382,172 382,382l0 1599c0,210 -172,382 -382,382l-13890 0c-210,0 -382,-172 -382,-382l0 -1599c0,-210 172,-382 382,-382zm0 9453l13890 0c210,0 382,172 382,382l0 1599c0,210 -172,382 -382,382l-13890 0c-210,0 -382,-172 -382,-382l0 -1599c0,-210 172,-382 382,-382zm0 -4727l13890 0c210,0 382,172 382,383l0 1598c0,211 -172,383 -382,383l-13890 0c-210,0 -382,-172 -382,-383l0 -1598c0,-211 172,-383 382,-383z"/>
  </g>
 </g>
</svg>
