<?xml version="1.0" encoding="UTF-8"?>
<!DOCTYPE svg PUBLIC "-//W3C//DTD SVG 1.1//EN" "http://www.w3.org/Graphics/SVG/1.1/DTD/svg11.dtd">
<!-- Creator: CorelDRAW X7 -->
<svg xmlns="http://www.w3.org/2000/svg" xml:space="preserve" width="512px" height="170px" version="1.1" style="shape-rendering:geometricPrecision; text-rendering:geometricPrecision; image-rendering:optimizeQuality; fill-rule:evenodd; clip-rule:evenodd"
viewBox="0 0 51200 17000"
 xmlns:xlink="http://www.w3.org/1999/xlink">
 <defs>
  <style type="text/css">
   <![CDATA[
    .fil2 {fill:#FEFEFE}
    .fil0 {fill:#BDBEBF}
    .fil1 {fill:#FC8835}
    .fil4 {fill:#BDBEBF;fill-rule:nonzero}
    .fil3 {fill:#FC8835;fill-rule:nonzero}
   ]]>
  </style>
 </defs>
 <g id="Layer_x0020_1">
  <metadata id="CorelCorpID_0Corel-Layer"/>
  <g id="_352096720">
   <g>
    <path class="fil0" d="M8505 2867c3113,0 5636,2522 5636,5633 0,22 0,44 0,66l0 7c-1,43 -2,85 -3,128l-1 18c-1,39 -3,77 -5,116l-3 38c-2,32 -4,65 -7,97 -2,22 -4,44 -6,66 -2,23 -4,46 -7,70 -3,27 -6,55 -9,83 -3,17 -5,34 -7,52 -4,29 -8,59 -12,89l-8 46c-4,32 -10,64 -15,96l-7 38c-6,34 -13,68 -19,102l-7 33c-8,36 -15,72 -24,107l-7 31c-9,38 -18,77 -28,115l-4 18c-11,40 -21,80 -33,120l-4 14c-11,39 -23,79 -35,119l-4 12c-13,40 -25,79 -38,118l-5 14c-13,39 -27,78 -41,117l-5 11c-14,40 -29,79 -44,118l-4 9c-16,41 -32,81 -49,121l-2 4c-856,2021 -2859,3439 -5193,3440l-2 0c-48,0 -96,-1 -143,-2l-1 0c-3045,-77 -5490,-2569 -5490,-5631 0,-3111 2523,-5633 5636,-5633z"/>
    <path class="fil1" d="M8505 0c4697,0 8505,3806 8505,8500 0,69 -1,137 -2,205l-1 21c-2,64 -4,129 -7,193l-2 31c-3,63 -7,125 -12,188l-2 33c-5,62 -10,124 -17,186l-3 31c-6,63 -13,126 -21,188l-3 21c-8,63 -17,126 -27,189l-1 11c-10,63 -20,126 -32,188l-5 29c-10,60 -22,119 -34,178l-7 38c-12,57 -24,114 -37,170l-10 42c-13,56 -27,112 -41,168 -3,13 -7,26 -10,39 -15,56 -30,113 -46,169 -3,11 -6,21 -9,32 -15,51 -30,102 -46,153 -3,12 -7,23 -11,35 -16,54 -34,107 -52,161 -5,14 -9,29 -14,43 -18,51 -36,102 -54,152 -6,18 -13,35 -19,53 -18,49 -37,97 -56,146 -7,18 -14,36 -21,54 -19,48 -39,96 -59,143 -7,18 -15,35 -22,52 -18,42 -36,83 -54,124 -10,23 -21,46 -32,70 -17,37 -34,73 -51,110 -12,24 -23,48 -34,71 -19,38 -37,75 -56,112 -11,23 -23,45 -34,67 -21,40 -42,80 -63,120 -13,23 -25,46 -38,69 -21,39 -43,78 -65,116 -13,24 -27,47 -41,70 -17,30 -34,59 -52,89 -19,32 -39,64 -58,96 -15,24 -30,48 -45,72 -23,36 -46,72 -69,107 -15,22 -29,44 -44,66 -25,38 -51,76 -77,114 -13,19 -27,39 -40,58 -28,40 -56,78 -84,117 -13,19 -27,37 -40,55 -20,27 -40,54 -60,81 -12,16 -24,31 -36,47 -32,42 -65,83 -98,125 -10,12 -19,24 -29,36 -36,44 -72,88 -108,131l-28 33c-39,46 -78,91 -118,136l-21 24c-44,48 -87,96 -132,144l-14 15c-126,134 -256,263 -390,388l-9 9c-50,47 -101,94 -153,139l-12 11c-26,23 -52,46 -78,68l0 1 0 0 -18 16 0 0 -19 16 0 0 -19 16 0 0 -19 16 0 0 -19 17 0 0 -19 15 0 0 -20 16 0 0 -19 16 0 0 -19 16 0 0 -39 31 0 0c-13,11 -25,21 -38,32l0 0 -20 15 0 0 -2 2 -35 27 -2 2 0 0 -2 2 -37 29 0 0 -20 15 0 0 -20 15 0 0 -20 15 0 0 -19 15 0 0 -20 15 0 0 -20 15 0 0 -20 15 0 0 -20 15 0 0 -20 15 0 0 -3 2 -34 25 -4 2 0 0 -3 3 -37 26 0 0 -41 29 0 0c-20,15 -40,29 -61,43l0 0 -20 15 0 0 -21 14 0 0 -21 14 0 0 -20 14 0 0 -21 14 0 0 -21 14 0 0 -21 14 0 0 -20 13 0 0 -21 14 0 0 -21 14 0 0 -21 13 0 0 -21 14 0 0 -21 14 0 0 -21 13 0 0 -21 13 0 0 -21 14 0 0 -22 13 0 0 -21 13 0 0 -21 13 0 0 -21 13 0 0 -22 13 0 0 -21 13 0 0 -22 13 0 0 -21 13 0 0 -22 13 0 0 -21 13 0 0 -22 12 0 0 -21 13 0 0 -2560 -3653c-518,237 -1094,370 -1701,370 -2252,0 -4078,-1824 -4078,-4075 0,-2251 1826,-4075 4078,-4075 2252,0 4078,1824 4078,4075 0,1069 -412,2041 -1086,2768l1648 2353c1397,-1264 2274,-3090 2274,-5121 0,-3816 -3096,-6910 -6914,-6910 -3818,0 -6914,3094 -6914,6910 0,3816 3096,6909 6914,6909l0 0 0 1591 0 0c-4697,0 -8505,-3806 -8505,-8500 0,-4694 3808,-8500 8505,-8500z"/>
    <path class="fil2" d="M6198 6538l4614 0c70,0 127,57 127,127l0 531c0,70 -57,127 -127,127l-4614 0c-70,0 -127,-57 -127,-127l0 -531c0,-70 57,-127 127,-127zm0 3139l4614 0c70,0 127,57 127,127l0 531c0,69 -57,127 -127,127l-4614 0c-70,0 -127,-58 -127,-127l0 -531c0,-70 57,-127 127,-127zm0 -1569l4614 0c70,0 127,57 127,127l0 530c0,70 -57,127 -127,127l-4614 0c-70,0 -127,-57 -127,-127l0 -530c0,-70 57,-127 127,-127z"/>
   </g>
   <path class="fil3" d="M50451 6087c-8,-179 -57,-323 -149,-433 -91,-110 -219,-165 -383,-165 -186,0 -328,52 -425,157 -97,104 -154,251 -173,441l1130 0zm-1136 554c15,223 93,385 235,486 142,101 328,151 559,151 127,0 257,-12 389,-37 133,-24 258,-58 378,-103 41,75 76,164 106,268 30,105 47,217 50,336 -291,112 -619,167 -984,167 -269,0 -499,-37 -691,-111 -192,-75 -348,-178 -469,-310 -122,-133 -211,-290 -269,-473 -58,-182 -87,-382 -87,-598 0,-212 30,-412 90,-598 60,-186 148,-348 266,-486 117,-138 262,-247 436,-327 173,-80 375,-120 607,-120 201,0 380,35 536,106 157,71 290,168 400,290 110,123 193,270 249,439 56,170 84,351 84,545 0,71 -3,141 -8,210 -6,69 -12,124 -20,165l-1857 0z"/>
   <path class="fil3" d="M46755 3757c134,-23 266,-34 397,-34 126,0 257,11 391,34l0 2934c0,115 7,209 20,279 13,71 33,126 61,165 28,40 65,66 109,81 45,15 101,23 168,23 30,0 63,-2 98,-6 36,-4 70,-9 104,-17 41,153 61,302 61,447 0,30 0,57 0,82 0,24 -4,51 -11,81 -60,18 -132,31 -215,39 -84,7 -162,11 -233,11 -287,0 -517,-79 -690,-238 -174,-158 -260,-416 -260,-774l0 -3107z"/>
   <path class="fil3" d="M45323 4466c-23,-126 -34,-251 -34,-374 0,-119 11,-244 34,-375 63,-11 131,-19 204,-25 73,-5 139,-8 198,-8 64,0 133,3 207,8 75,6 144,14 207,25 11,64 19,126 23,188 3,61 5,124 5,187 0,60 -2,121 -5,184 -4,64 -12,127 -23,190 -63,12 -131,19 -204,23 -73,3 -141,5 -204,5 -60,0 -127,-2 -201,-5 -75,-4 -144,-11 -207,-23zm117 1090l-375 0c-11,-48 -19,-99 -25,-153 -5,-54 -8,-106 -8,-154 0,-101 11,-199 33,-296l1153 0 0 2889c-135,23 -265,34 -392,34 -123,0 -252,-11 -386,-34l0 -2286z"/>
   <path class="fil3" d="M42215 3824l2282 0c22,111 34,225 34,341 0,123 -12,240 -34,352l-1465 0 0 944 1163 0c22,119 34,235 34,347 0,119 -12,236 -34,352l-1163 0 0 1682c-142,23 -276,34 -403,34 -138,0 -276,-11 -414,-34l0 -4018z"/>
   <path class="fil3" d="M37566 7786l1689 -3269 -1544 0c-22,-112 -34,-226 -34,-341 0,-123 12,-241 34,-352l2696 0 44 67 -1672 3258 1588 0c23,112 34,226 34,341 0,123 -11,241 -34,352l-2762 0 -39 -56z"/>
   <path class="fil3" d="M35323 4953c56,-11 109,-20 159,-25 50,-6 105,-9 165,-9 56,0 111,4 165,11 54,8 107,17 159,28 12,19 22,46 31,81 9,36 18,73 25,112 8,39 14,78 20,117 5,40 10,72 14,98 82,-115 183,-219 302,-310 119,-91 268,-137 447,-137 38,0 80,2 129,6 48,4 84,9 106,17 8,37 13,80 17,128 4,49 6,99 6,151 0,63 -3,132 -9,207 -5,74 -16,145 -31,212 -41,-7 -86,-11 -137,-11 -50,0 -81,0 -92,0 -63,0 -134,7 -212,20 -79,13 -153,47 -224,103 -71,56 -130,140 -176,251 -47,112 -70,269 -70,470l0 1375c-67,11 -134,19 -202,22 -67,4 -132,6 -195,6 -64,0 -128,-2 -193,-6 -65,-3 -134,-11 -204,-22l0 -2895z"/>
   <path class="fil3" d="M32901 6641c15,223 93,385 235,486 141,101 328,151 559,151 127,0 256,-12 389,-37 132,-24 258,-58 377,-103 41,75 77,164 106,268 30,105 47,217 51,336 -291,112 -619,167 -985,167 -268,0 -498,-37 -690,-111 -192,-75 -349,-178 -470,-310 -121,-133 -211,-290 -268,-473 -58,-182 -87,-382 -87,-598 0,-212 30,-412 89,-598 60,-186 148,-348 266,-486 117,-138 263,-247 436,-327 174,-80 376,-120 607,-120 201,0 380,35 537,106 156,71 290,168 400,290 110,123 193,270 249,439 56,170 83,351 83,545 0,71 -2,141 -8,210 -5,69 -12,124 -19,165l-1857 0zm1135 -554c-7,-179 -57,-323 -148,-433 -91,-110 -219,-165 -383,-165 -187,0 -328,52 -425,157 -97,104 -155,251 -174,441l1130 0z"/>
   <path class="fil3" d="M27386 4953c52,-11 105,-20 157,-25 52,-6 110,-9 173,-9 63,0 119,3 168,9 48,5 99,14 151,25 11,18 21,45 31,81 9,35 17,72 25,111 7,40 14,78 19,115 6,37 11,69 14,95 30,-56 69,-112 118,-168 48,-55 106,-106 173,-150 67,-45 143,-82 227,-109 84,-28 178,-42 282,-42 451,0 740,171 867,514 75,-138 180,-258 316,-361 136,-102 308,-153 517,-153 328,0 570,90 725,271 154,180 232,463 232,846l0 1839c-135,23 -267,34 -397,34 -131,0 -263,-11 -398,-34l0 -1632c0,-201 -25,-356 -75,-464 -50,-108 -152,-162 -305,-162 -63,0 -126,10 -187,28 -62,19 -118,53 -168,104 -50,50 -91,121 -123,212 -32,91 -48,210 -48,355l0 1559c-134,23 -266,34 -397,34 -130,0 -262,-11 -397,-34l0 -1632c0,-201 -25,-356 -75,-464 -51,-108 -152,-162 -305,-162 -63,0 -127,10 -190,28 -64,19 -120,55 -171,109 -50,54 -90,130 -120,227 -30,96 -45,223 -45,380l0 1514c-134,23 -266,34 -397,34 -130,0 -263,-11 -397,-34l0 -2889z"/>
   <path class="fil3" d="M26077 5942c0,-89 -15,-162 -44,-218 -30,-56 -71,-100 -124,-131 -52,-32 -116,-53 -193,-65 -76,-11 -161,-16 -254,-16 -201,0 -416,39 -643,117 -52,-97 -91,-188 -118,-274 -26,-86 -39,-188 -39,-307 164,-56 328,-97 492,-123 164,-26 317,-39 459,-39 388,0 691,93 909,279 218,186 327,484 327,894l0 1677c-130,41 -289,80 -475,118 -187,37 -397,55 -632,55 -191,0 -365,-16 -523,-50 -159,-33 -295,-89 -409,-168 -113,-78 -201,-178 -262,-301 -62,-123 -93,-274 -93,-453 0,-179 39,-329 115,-450 76,-121 175,-218 296,-291 122,-72 257,-125 406,-156 149,-32 298,-48 447,-48 108,0 228,6 358,17l0 -67zm0 576c-44,-8 -93,-14 -145,-20 -52,-5 -99,-8 -140,-8 -183,0 -327,32 -433,98 -107,65 -160,170 -160,315 0,97 21,172 62,224 41,52 90,90 148,114 58,25 119,40 184,45 66,6 123,9 171,9 56,0 112,-5 168,-14 56,-10 104,-18 145,-25l0 -738z"/>
   <path class="fil3" d="M23108 5758c137,-23 272,-34 402,-34 131,0 267,11 408,34l0 1973c-193,70 -396,118 -606,142 -211,24 -395,36 -551,36 -328,0 -615,-51 -862,-153 -246,-103 -451,-246 -615,-431 -164,-184 -287,-403 -369,-656 -82,-254 -123,-529 -123,-828 0,-298 43,-574 129,-830 86,-255 209,-476 372,-662 162,-186 361,-332 598,-436 237,-104 506,-156 808,-156 179,0 346,11 501,33 154,22 316,69 484,140 -8,112 -30,221 -68,327 -37,106 -78,213 -123,321 -130,-45 -246,-76 -346,-95 -101,-18 -220,-28 -358,-28 -358,0 -633,117 -825,350 -192,232 -288,578 -288,1036 0,459 95,801 285,1026 190,225 470,338 839,338 63,0 120,-4 171,-11 50,-7 96,-15 137,-22l0 -1414z"/>
   <path class="fil4" d="M40381 10269c56,-11 109,-19 160,-25 50,-6 105,-8 165,-8 56,0 111,3 165,11 54,7 107,17 159,28 11,18 21,45 31,81 9,35 17,72 25,112 7,39 14,78 19,117 6,39 11,72 14,98 82,-116 183,-219 303,-310 119,-92 268,-137 447,-137 37,0 80,1 129,5 48,4 83,10 106,17 7,37 13,80 17,129 3,48 5,98 5,150 0,64 -3,133 -8,207 -6,75 -16,146 -31,213 -41,-8 -87,-11 -137,-11 -50,0 -81,0 -92,0 -64,0 -134,6 -213,19 -78,13 -153,48 -223,103 -71,56 -130,140 -177,252 -46,112 -70,268 -70,469l0 1375c-67,12 -134,19 -201,23 -67,3 -132,5 -196,5 -63,0 -127,-2 -193,-5 -65,-4 -133,-11 -204,-23l0 -2895z"/>
   <path class="fil4" d="M39111 11404c-8,-179 -57,-323 -148,-433 -92,-110 -219,-165 -383,-165 -187,0 -328,52 -425,156 -97,105 -155,252 -174,442l1130 0zm-1135 553c15,224 93,386 235,486 141,101 328,151 559,151 127,0 256,-12 389,-36 132,-24 258,-59 377,-103 41,74 76,164 106,268 30,104 47,216 51,335 -291,112 -619,168 -985,168 -268,0 -498,-37 -690,-112 -192,-74 -349,-178 -470,-310 -121,-132 -211,-290 -269,-472 -57,-183 -86,-382 -86,-598 0,-213 29,-412 89,-598 60,-187 148,-349 266,-487 117,-138 263,-247 436,-327 173,-80 376,-120 607,-120 201,0 380,35 537,106 156,71 290,168 400,291 110,123 193,269 248,439 56,169 84,351 84,545 0,71 -2,140 -8,209 -6,69 -12,124 -20,165l-1856 0z"/>
   <path class="fil4" d="M35069 10269c56,-11 109,-19 159,-25 50,-6 105,-8 165,-8 56,0 111,3 165,11 54,7 107,17 159,28 12,18 22,45 31,81 10,35 18,72 25,112 8,39 14,78 20,117 6,39 10,72 14,98 82,-116 183,-219 302,-310 119,-92 268,-137 447,-137 38,0 81,1 129,5 49,4 84,10 106,17 8,37 13,80 17,129 4,48 6,98 6,150 0,64 -3,133 -9,207 -5,75 -16,146 -30,213 -41,-8 -87,-11 -137,-11 -51,0 -82,0 -93,0 -63,0 -134,6 -212,19 -79,13 -153,48 -224,103 -71,56 -130,140 -176,252 -47,112 -70,268 -70,469l0 1375c-67,12 -134,19 -201,23 -67,3 -133,5 -196,5 -64,0 -128,-2 -193,-5 -65,-4 -133,-11 -204,-23l0 -2895z"/>
   <path class="fil4" d="M33159 12622c209,0 359,-77 450,-232 92,-154 137,-377 137,-668 0,-290 -45,-513 -137,-668 -91,-154 -241,-232 -450,-232 -205,0 -353,78 -444,232 -92,155 -137,378 -137,668 0,291 45,514 137,668 91,155 239,232 444,232zm0 604c-235,0 -439,-38 -612,-115 -174,-76 -317,-182 -431,-318 -114,-136 -199,-296 -257,-478 -58,-183 -87,-380 -87,-593 0,-212 29,-411 87,-598 58,-186 143,-347 257,-483 114,-136 257,-243 431,-322 173,-78 377,-117 612,-117 235,0 440,39 615,117 176,79 321,186 436,322 116,136 202,297 258,483 56,187 84,386 84,598 0,213 -28,410 -84,593 -56,182 -142,342 -258,478 -115,136 -260,242 -436,318 -175,77 -380,115 -615,115z"/>
   <path class="fil4" d="M30027 9073c135,-22 267,-34 398,-34 126,0 257,12 391,34l0 2934c0,116 7,209 20,280 13,71 33,126 61,165 28,39 65,66 109,81 45,15 101,22 168,22 30,0 62,-2 98,-5 35,-4 70,-10 103,-17 41,153 62,302 62,447 0,30 0,57 0,81 0,24 -4,51 -11,81 -60,19 -132,32 -216,39 -83,8 -161,11 -232,11 -287,0 -517,-79 -690,-237 -174,-159 -261,-416 -261,-774l0 -3108z"/>
   <path class="fil4" d="M27583 12544c101,30 217,45 347,45 231,0 408,-75 531,-224 123,-149 185,-374 185,-676 0,-116 -9,-223 -28,-322 -19,-98 -50,-183 -95,-254 -45,-71 -102,-126 -171,-167 -69,-41 -153,-62 -254,-62 -93,0 -173,18 -238,53 -65,35 -118,84 -159,145 -41,62 -71,134 -90,216 -18,82 -28,169 -28,262l0 984zm-794 -2280c52,-12 104,-19 154,-23 50,-4 107,-5 170,-5 105,0 211,11 319,33 11,19 22,46 31,81 9,36 19,74 28,115 9,41 17,81 22,120 6,39 11,72 14,98 34,-60 75,-118 123,-176 49,-58 108,-109 177,-154 69,-45 146,-81 232,-109 85,-28 181,-42 285,-42 160,0 310,30 450,90 140,59 262,150 366,271 105,121 186,273 244,455 58,183 86,399 86,648 0,243 -35,460 -106,652 -71,192 -173,355 -307,489 -135,134 -299,237 -493,310 -194,73 -413,109 -660,109 -63,0 -125,-3 -187,-8 -61,-6 -113,-13 -154,-20l0 1286c-71,11 -139,18 -204,22 -65,4 -129,5 -193,5 -63,0 -127,-1 -193,-5 -65,-4 -133,-11 -204,-22l0 -4220z"/>
   <path class="fil4" d="M24966 11683l447 -1414c138,-22 282,-33 431,-33 138,0 274,11 408,33l-559 1397 665 1493c-145,22 -283,33 -414,33 -130,0 -263,-11 -397,-33l-581 -1476zm-767 -17l-553 -1397c123,-22 259,-33 408,-33 142,0 285,11 431,33l442 1414 -576 1476c-135,22 -267,33 -398,33 -130,0 -268,-11 -413,-33l659 -1493z"/>
   <path class="fil4" d="M20796 9140l2282 0c22,112 33,226 33,341 0,123 -11,240 -33,352l-1466 0 0 872 1164 0c22,119 33,235 33,347 0,119 -11,236 -33,352l-1164 0 0 1062 1505 0c22,112 34,225 34,341 0,123 -12,240 -34,352l-2321 0 0 -4019z"/>
  </g>
 </g>
</svg>
