<?xml version="1.0" encoding="UTF-8"?>
<!DOCTYPE svg PUBLIC "-//W3C//DTD SVG 1.1//EN" "http://www.w3.org/Graphics/SVG/1.1/DTD/svg11.dtd">
<!-- Creator: CorelDRAW X7 -->
<svg xmlns="http://www.w3.org/2000/svg" xml:space="preserve" width="512px" height="170px" version="1.1" style="shape-rendering:geometricPrecision; text-rendering:geometricPrecision; image-rendering:optimizeQuality; fill-rule:evenodd; clip-rule:evenodd"
viewBox="0 0 51200 17000"
 xmlns:xlink="http://www.w3.org/1999/xlink">
 <defs>
  <style type="text/css">
   <![CDATA[
    .fil2 {fill:#FEFEFE}
    .fil0 {fill:#BDBFC1}
    .fil1 {fill:#FEBF2C}
    .fil4 {fill:#BDBFC1;fill-rule:nonzero}
    .fil3 {fill:#FEBF2C;fill-rule:nonzero}
   ]]>
  </style>
 </defs>
 <g id="Layer_x0020_1">
  <metadata id="CorelCorpID_0Corel-Layer"/>
  <g id="_235473424">
   <g>
    <path class="fil0" d="M8505 2864c3113,0 5636,2523 5636,5636 0,22 0,44 0,66l0 7c-1,43 -2,85 -3,128l-1 18c-1,39 -3,77 -5,116l-3 38c-2,33 -4,65 -7,97 -2,22 -4,44 -6,66 -2,24 -4,47 -7,70 -3,28 -6,56 -9,83 -3,18 -5,35 -7,52 -4,30 -8,60 -12,89l-8 47c-4,32 -10,64 -15,95l-7 38c-6,34 -13,68 -19,102l-7 33c-8,36 -15,72 -24,108l-7 30c-9,39 -18,78 -28,116l-4 17c-11,41 -21,81 -33,121l-4 14c-11,39 -23,79 -35,119l-4 12c-13,40 -25,79 -38,118l-5 14c-13,39 -27,78 -41,117l-5 12c-14,39 -29,78 -44,117l-4 9c-16,41 -32,81 -49,121l-2 4c-856,2023 -2859,3442 -5193,3442l-2 0c-48,0 -96,0 -143,-2l-1 0c-3045,-77 -5490,-2570 -5490,-5634 0,-3113 2523,-5636 5636,-5636z"/>
    <path class="fil1" d="M8505 -5c4697,0 8505,3808 8505,8505 0,69 -1,137 -2,205l-1 21c-2,65 -4,129 -7,193l-2 32c-3,62 -7,125 -12,187l-2 34c-5,62 -10,124 -17,185l-3 32c-6,63 -13,125 -21,188l-3 21c-8,63 -17,126 -27,189l-1 11c-10,63 -20,126 -32,188l-5 29c-10,60 -22,119 -34,178l-7 38c-12,57 -24,114 -37,171l-10 41c-13,56 -27,112 -41,168 -3,13 -7,26 -10,39 -15,57 -30,113 -46,169 -3,11 -6,22 -9,33 -15,51 -30,102 -46,153 -3,11 -7,23 -11,34 -16,54 -34,108 -52,161 -5,15 -9,29 -14,44 -18,51 -36,102 -54,152 -6,18 -13,35 -19,53 -18,48 -37,97 -56,145 -7,19 -14,37 -21,55 -19,48 -39,96 -59,143 -7,18 -15,35 -22,52 -18,42 -36,83 -54,124 -10,23 -21,46 -32,70 -17,37 -34,74 -51,110 -12,24 -23,48 -34,71 -19,38 -37,75 -56,113 -11,22 -23,44 -34,66 -21,40 -42,81 -63,120 -13,23 -25,47 -38,70 -21,38 -43,77 -65,116 -13,23 -27,47 -41,70 -17,30 -34,59 -52,88 -19,33 -39,65 -58,97 -15,24 -30,48 -45,72 -23,36 -46,71 -69,107 -15,22 -29,44 -44,66 -25,38 -51,76 -77,114 -13,19 -27,39 -40,58 -28,39 -56,78 -84,117 -13,19 -27,37 -40,55 -20,27 -40,54 -60,81 -12,16 -24,31 -36,47 -32,42 -65,83 -98,125 -10,12 -19,24 -29,36 -36,44 -72,88 -108,131l-28 33c-39,46 -78,91 -118,136l-21 24c-44,49 -87,97 -132,144l-14 16c-126,133 -256,263 -390,388l-9 9c-50,47 -101,93 -153,139l-12 11c-26,23 -52,46 -78,68l0 1 0 0 -18 16 0 0 -19 16 0 0 -19 16 0 0 -19 16 0 0 -19 16 0 0 -19 16 0 0 -20 16 0 0 -19 16 0 0 -19 16 0 0 -39 31 0 0c-13,11 -25,21 -38,32l0 0 -20 15 0 0 -2 2 -35 27 -2 2 0 0 -2 2 -37 29 0 0 -20 15 0 0 -20 15 0 0 -20 15 0 0 -19 16 0 0 -20 15 0 0 -20 15 0 0 -20 14 0 0 -20 15 0 0 -20 15 0 0 -3 2 -34 25 -4 2 0 1 -3 2 -37 27 0 0 -41 29 0 0c-20,14 -40,28 -61,43l0 0 -20 14 0 0 -21 14 0 0 -21 14 0 0 -20 14 0 0 -21 14 0 0 -21 14 0 0 -21 14 0 0 -20 14 0 0 -21 13 0 1 -21 13 0 0 -21 14 0 0 -21 13 0 0 -21 14 0 0 -21 13 0 0 -21 14 0 0 -21 13 0 0 -22 13 0 0 -21 14 0 0 -21 13 0 0 -21 13 0 0 -22 13 0 0 -21 13 0 0 -22 13 0 0 -21 12 0 1 -22 12 0 0 -21 13 0 0 -22 13 0 0 -21 12 0 0 -2560 -3655c-518,238 -1094,371 -1701,371 -2252,0 -4078,-1826 -4078,-4078 0,-2252 1826,-4078 4078,-4078 2252,0 4078,1826 4078,4078 0,1070 -412,2043 -1086,2770l1648 2354c1397,-1265 2274,-3092 2274,-5124 0,-3818 -3096,-6914 -6914,-6914 -3818,0 -6914,3096 -6914,6914 0,3818 3096,6914 6914,6914l0 0 0 1591 0 0c-4697,0 -8505,-3808 -8505,-8505 0,-4697 3808,-8505 8505,-8505z"/>
    <path class="fil2" d="M6198 6537l4614 0c70,0 127,57 127,127l0 531c0,70 -57,127 -127,127l-4614 0c-70,0 -127,-57 -127,-127l0 -531c0,-70 57,-127 127,-127zm0 3141l4614 0c70,0 127,57 127,127l0 531c0,70 -57,127 -127,127l-4614 0c-70,0 -127,-57 -127,-127l0 -531c0,-70 57,-127 127,-127zm0 -1571l4614 0c70,0 127,58 127,127l0 532c0,69 -57,127 -127,127l-4614 0c-70,0 -127,-58 -127,-127l0 -532c0,-69 57,-127 127,-127z"/>
   </g>
   <path class="fil3" d="M50451 6086c-8,-179 -57,-324 -149,-434 -91,-110 -219,-165 -383,-165 -186,0 -328,53 -425,157 -97,104 -154,252 -173,442l1130 0zm-1136 554c15,223 93,385 235,486 142,101 328,151 559,151 127,0 257,-12 389,-36 133,-24 258,-59 378,-104 41,75 76,164 106,269 30,104 47,216 50,335 -291,112 -619,168 -984,168 -269,0 -499,-37 -691,-112 -192,-74 -348,-178 -469,-310 -122,-132 -211,-290 -269,-473 -58,-182 -87,-382 -87,-598 0,-213 30,-412 90,-599 60,-186 148,-348 266,-486 117,-138 262,-247 436,-327 173,-80 375,-121 607,-121 201,0 380,36 536,107 157,71 290,167 400,290 110,124 193,270 249,440 56,169 84,351 84,545 0,71 -3,141 -8,210 -6,69 -12,123 -20,165l-1857 0z"/>
   <path class="fil3" d="M46755 3754c134,-23 266,-34 397,-34 126,0 257,11 391,34l0 2936c0,115 7,209 20,279 13,71 33,126 61,165 28,40 65,67 109,82 45,14 101,22 168,22 30,0 63,-2 98,-6 36,-3 70,-9 104,-16 41,152 61,302 61,447 0,30 0,57 0,81 0,24 -4,51 -11,81 -60,19 -132,32 -215,39 -84,8 -162,11 -233,11 -287,0 -517,-79 -690,-237 -174,-159 -260,-417 -260,-775l0 -3109z"/>
   <path class="fil3" d="M45323 4464c-23,-127 -34,-252 -34,-375 0,-119 11,-244 34,-374 63,-12 131,-20 204,-26 73,-5 139,-8 198,-8 64,0 133,3 207,8 75,6 144,14 207,26 11,63 19,125 23,187 3,61 5,124 5,187 0,60 -2,121 -5,185 -4,63 -12,127 -23,190 -63,11 -131,19 -204,22 -73,4 -141,6 -204,6 -60,0 -127,-2 -201,-6 -75,-3 -144,-11 -207,-22zm117 1091l-375 0c-11,-49 -19,-100 -25,-154 -5,-54 -8,-106 -8,-154 0,-101 11,-200 33,-297l1153 0 0 2892c-135,22 -265,33 -392,33 -123,0 -252,-11 -386,-33l0 -2287z"/>
   <path class="fil3" d="M42215 3821l2282 0c22,112 34,225 34,341 0,123 -12,240 -34,352l-1465 0 0 945 1163 0c22,120 34,235 34,347 0,119 -12,237 -34,353l-1163 0 0 1683c-142,22 -276,33 -403,33 -138,0 -276,-11 -414,-33l0 -4021z"/>
   <path class="fil3" d="M37566 7786l1689 -3272 -1544 0c-22,-112 -34,-225 -34,-341 0,-123 12,-240 34,-352l2696 0 44 67 -1672 3260 1588 0c23,112 34,226 34,342 0,123 -11,240 -34,352l-2762 0 -39 -56z"/>
   <path class="fil3" d="M35323 4950c56,-11 109,-19 159,-25 50,-5 105,-8 165,-8 56,0 111,4 165,11 54,8 107,17 159,28 12,19 22,46 31,81 9,36 18,73 25,112 8,39 14,78 20,118 5,39 10,71 14,97 82,-115 183,-219 302,-310 119,-91 268,-137 447,-137 38,0 80,2 129,6 48,3 84,9 106,16 8,38 13,80 17,129 4,48 6,99 6,151 0,63 -3,132 -9,207 -5,75 -16,145 -31,212 -41,-7 -86,-11 -137,-11 -50,0 -81,0 -92,0 -63,0 -134,7 -212,20 -79,13 -153,47 -224,103 -71,56 -130,140 -176,252 -47,112 -70,268 -70,470l0 1376c-67,11 -134,18 -202,22 -67,4 -132,5 -195,5 -64,0 -128,-1 -193,-5 -65,-4 -134,-11 -204,-22l0 -2898z"/>
   <path class="fil3" d="M32901 6640c15,223 93,385 235,486 141,101 328,151 559,151 127,0 256,-12 389,-36 132,-24 258,-59 377,-104 41,75 77,164 106,269 30,104 47,216 51,335 -291,112 -619,168 -985,168 -268,0 -498,-37 -690,-112 -192,-74 -349,-178 -470,-310 -121,-132 -211,-290 -268,-473 -58,-182 -87,-382 -87,-598 0,-213 30,-412 89,-599 60,-186 148,-348 266,-486 117,-138 263,-247 436,-327 174,-80 376,-121 607,-121 201,0 380,36 537,107 156,71 290,167 400,290 110,124 193,270 249,440 56,169 83,351 83,545 0,71 -2,141 -8,210 -5,69 -12,123 -19,165l-1857 0zm1135 -554c-7,-179 -57,-324 -148,-434 -91,-110 -219,-165 -383,-165 -187,0 -328,53 -425,157 -97,104 -155,252 -174,442l1130 0z"/>
   <path class="fil3" d="M27386 4950c52,-11 105,-19 157,-25 52,-5 110,-8 173,-8 63,0 119,3 168,8 48,6 99,14 151,25 11,19 21,46 31,82 9,35 17,72 25,111 7,40 14,78 19,115 6,37 11,69 14,95 30,-56 69,-112 118,-168 48,-55 106,-106 173,-151 67,-44 143,-81 227,-109 84,-28 178,-42 282,-42 451,0 740,172 867,515 75,-138 180,-258 316,-361 136,-102 308,-154 517,-154 328,0 570,91 725,272 154,181 232,463 232,847l0 1840c-135,22 -267,33 -397,33 -131,0 -263,-11 -398,-33l0 -1633c0,-201 -25,-356 -75,-464 -50,-108 -152,-163 -305,-163 -63,0 -126,10 -187,28 -62,19 -118,54 -168,104 -50,50 -91,121 -123,212 -32,92 -48,210 -48,356l0 1560c-134,22 -266,33 -397,33 -130,0 -262,-11 -397,-33l0 -1633c0,-201 -25,-356 -75,-464 -51,-108 -152,-163 -305,-163 -63,0 -127,10 -190,28 -64,19 -120,55 -171,110 -50,54 -90,129 -120,226 -30,97 -45,224 -45,380l0 1516c-134,22 -266,33 -397,33 -130,0 -263,-11 -397,-33l0 -2892z"/>
   <path class="fil3" d="M26077 5940c0,-89 -15,-162 -44,-218 -30,-56 -71,-99 -124,-131 -52,-32 -116,-53 -193,-64 -76,-12 -161,-17 -254,-17 -201,0 -416,39 -643,117 -52,-97 -91,-188 -118,-274 -26,-86 -39,-188 -39,-307 164,-56 328,-97 492,-123 164,-26 317,-40 459,-40 388,0 691,94 909,280 218,186 327,485 327,895l0 1678c-130,41 -289,80 -475,117 -187,37 -397,56 -632,56 -191,0 -365,-17 -523,-50 -159,-34 -295,-90 -409,-168 -113,-78 -201,-179 -262,-302 -62,-123 -93,-274 -93,-453 0,-179 39,-329 115,-450 76,-121 175,-218 296,-291 122,-73 257,-125 406,-157 149,-31 298,-47 447,-47 108,0 228,5 358,17l0 -68zm0 577c-44,-8 -93,-15 -145,-20 -52,-6 -99,-8 -140,-8 -183,0 -327,32 -433,97 -107,66 -160,171 -160,316 0,97 21,172 62,224 41,52 90,91 148,115 58,24 119,39 184,45 66,5 123,8 171,8 56,0 112,-5 168,-14 56,-9 104,-18 145,-25l0 -738z"/>
   <path class="fil3" d="M23108 5756c137,-22 272,-34 402,-34 131,0 267,12 408,34l0 1974c-193,71 -396,118 -606,143 -211,24 -395,36 -551,36 -328,0 -615,-51 -862,-154 -246,-102 -451,-246 -615,-430 -164,-185 -287,-404 -369,-658 -82,-253 -123,-529 -123,-827 0,-298 43,-575 129,-831 86,-255 209,-476 372,-662 162,-187 361,-332 598,-437 237,-104 506,-156 808,-156 179,0 346,11 501,33 154,23 316,69 484,140 -8,112 -30,221 -68,327 -37,107 -78,214 -123,322 -130,-45 -246,-77 -346,-95 -101,-19 -220,-28 -358,-28 -358,0 -633,116 -825,349 -192,233 -288,579 -288,1038 0,458 95,800 285,1026 190,226 470,338 839,338 63,0 120,-3 171,-11 50,-7 96,-15 137,-22l0 -1415z"/>
   <path class="fil4" d="M40381 10270c56,-11 109,-19 160,-25 50,-6 105,-8 165,-8 56,0 111,3 165,11 54,7 107,17 159,28 11,19 21,46 31,81 9,35 17,73 25,112 7,39 14,78 19,117 6,39 11,72 14,98 82,-115 183,-219 303,-310 119,-92 268,-137 447,-137 37,0 80,2 129,5 48,4 83,10 106,17 7,37 13,80 17,129 3,48 5,98 5,151 0,63 -3,132 -8,207 -6,74 -16,145 -31,212 -41,-7 -87,-11 -137,-11 -50,0 -81,0 -92,0 -64,0 -134,6 -213,20 -78,13 -153,47 -223,103 -71,56 -130,140 -177,252 -46,112 -70,268 -70,469l0 1376c-67,11 -134,19 -201,23 -67,3 -132,5 -196,5 -63,0 -127,-2 -193,-5 -65,-4 -133,-12 -204,-23l0 -2897z"/>
   <path class="fil4" d="M39111 11406c-8,-179 -57,-324 -148,-434 -92,-110 -219,-165 -383,-165 -187,0 -328,52 -425,157 -97,104 -155,251 -174,442l1130 0zm-1135 553c15,224 93,386 235,487 141,100 328,151 559,151 127,0 256,-12 389,-37 132,-24 258,-58 377,-103 41,75 76,164 106,268 30,105 47,217 51,336 -291,112 -619,168 -985,168 -268,0 -498,-37 -690,-112 -192,-75 -349,-178 -470,-311 -121,-132 -211,-289 -269,-472 -57,-183 -86,-382 -86,-598 0,-213 29,-413 89,-599 60,-186 148,-349 266,-486 117,-138 263,-247 436,-328 173,-80 376,-120 607,-120 201,0 380,36 537,106 156,71 290,168 400,291 110,123 193,270 248,439 56,170 84,352 84,546 0,70 -2,140 -8,209 -6,69 -12,124 -20,165l-1856 0z"/>
   <path class="fil4" d="M35069 10270c56,-11 109,-19 159,-25 50,-6 105,-8 165,-8 56,0 111,3 165,11 54,7 107,17 159,28 12,19 22,46 31,81 10,35 18,73 25,112 8,39 14,78 20,117 6,39 10,72 14,98 82,-115 183,-219 302,-310 119,-92 268,-137 447,-137 38,0 81,2 129,5 49,4 84,10 106,17 8,37 13,80 17,129 4,48 6,98 6,151 0,63 -3,132 -9,207 -5,74 -16,145 -30,212 -41,-7 -87,-11 -137,-11 -51,0 -82,0 -93,0 -63,0 -134,6 -212,20 -79,13 -153,47 -224,103 -71,56 -130,140 -176,252 -47,112 -70,268 -70,469l0 1376c-67,11 -134,19 -201,23 -67,3 -133,5 -196,5 -64,0 -128,-2 -193,-5 -65,-4 -133,-12 -204,-23l0 -2897z"/>
   <path class="fil4" d="M33159 12625c209,0 359,-78 450,-232 92,-155 137,-378 137,-669 0,-290 -45,-513 -137,-668 -91,-155 -241,-232 -450,-232 -205,0 -353,77 -444,232 -92,155 -137,378 -137,668 0,291 45,514 137,669 91,154 239,232 444,232zm0 604c-235,0 -439,-38 -612,-115 -174,-76 -317,-183 -431,-319 -114,-136 -199,-295 -257,-478 -58,-183 -87,-380 -87,-593 0,-212 29,-412 87,-598 58,-186 143,-348 257,-484 114,-136 257,-243 431,-321 173,-79 377,-118 612,-118 235,0 440,39 615,118 176,78 321,185 436,321 116,136 202,298 258,484 56,186 84,386 84,598 0,213 -28,410 -84,593 -56,183 -142,342 -258,478 -115,136 -260,243 -436,319 -175,77 -380,115 -615,115z"/>
   <path class="fil4" d="M30027 9073c135,-22 267,-33 398,-33 126,0 257,11 391,33l0 2937c0,115 7,208 20,279 13,71 33,126 61,165 28,39 65,66 109,81 45,15 101,23 168,23 30,0 62,-2 98,-6 35,-4 70,-9 103,-17 41,153 62,302 62,448 0,30 0,57 0,81 0,24 -4,51 -11,81 -60,19 -132,32 -216,39 -83,8 -161,11 -232,11 -287,0 -517,-79 -690,-237 -174,-159 -261,-417 -261,-775l0 -3110z"/>
   <path class="fil4" d="M27583 12546c101,30 217,45 347,45 231,0 408,-74 531,-224 123,-149 185,-374 185,-676 0,-116 -9,-223 -28,-322 -19,-99 -50,-183 -95,-254 -45,-71 -102,-127 -171,-168 -69,-41 -153,-62 -254,-62 -93,0 -173,18 -238,54 -65,35 -118,83 -159,145 -41,62 -71,133 -90,215 -18,82 -28,170 -28,263l0 984zm-794 -2281c52,-11 104,-19 154,-23 50,-3 107,-5 170,-5 105,0 211,11 319,33 11,19 22,46 31,81 9,36 19,74 28,115 9,41 17,81 22,120 6,39 11,72 14,98 34,-60 75,-118 123,-176 49,-58 108,-109 177,-154 69,-45 146,-81 232,-109 85,-28 181,-42 285,-42 160,0 310,30 450,90 140,59 262,150 366,271 105,121 186,273 244,456 58,182 86,399 86,648 0,243 -35,460 -106,652 -71,192 -173,355 -307,489 -135,135 -299,238 -493,311 -194,72 -413,109 -660,109 -63,0 -125,-3 -187,-9 -61,-5 -113,-12 -154,-19l0 1286c-71,11 -139,19 -204,23 -65,3 -129,5 -193,5 -63,0 -127,-2 -193,-5 -65,-4 -133,-12 -204,-23l0 -4222z"/>
   <path class="fil4" d="M24966 11685l447 -1415c138,-22 282,-33 431,-33 138,0 274,11 408,33l-559 1398 665 1494c-145,22 -283,33 -414,33 -130,0 -263,-11 -397,-33l-581 -1477zm-767 -17l-553 -1398c123,-22 259,-33 408,-33 142,0 285,11 431,33l442 1415 -576 1477c-135,22 -267,33 -398,33 -130,0 -268,-11 -413,-33l659 -1494z"/>
   <path class="fil4" d="M20796 9140l2282 0c22,112 33,226 33,342 0,123 -11,240 -33,352l-1466 0 0 872 1164 0c22,120 33,235 33,347 0,120 -11,237 -33,353l-1164 0 0 1062 1505 0c22,112 34,226 34,341 0,123 -12,241 -34,353l-2321 0 0 -4022z"/>
  </g>
 </g>
</svg>
