<?xml version="1.0" encoding="UTF-8"?>
<!DOCTYPE svg PUBLIC "-//W3C//DTD SVG 1.1//EN" "http://www.w3.org/Graphics/SVG/1.1/DTD/svg11.dtd">
<!-- Creator: CorelDRAW X7 -->
<svg xmlns="http://www.w3.org/2000/svg" xml:space="preserve" width="72px" height="72px" version="1.1" style="shape-rendering:geometricPrecision; text-rendering:geometricPrecision; image-rendering:optimizeQuality; fill-rule:evenodd; clip-rule:evenodd"
viewBox="0 0 7200 7200"
 xmlns:xlink="http://www.w3.org/1999/xlink">
 <defs>
  <style type="text/css">
   <![CDATA[
    .fil2 {fill:#FEFEFE}
    .fil0 {fill:#BDBEBF}
    .fil1 {fill:#FC8835}
   ]]>
  </style>
 </defs>
 <g id="Layer_x0020_1">
  <metadata id="CorelCorpID_0Corel-Layer"/>
  <g id="_354546280">
   <path class="fil0" d="M3600 1214c1318,0 2386,1068 2386,2386 0,9 0,19 0,28l0 3c-1,18 -1,36 -2,54l0 8c-1,16 -1,32 -2,49l-1 16c-1,14 -2,27 -3,41 -1,9 -2,19 -3,28 -1,10 -2,20 -3,30 -1,11 -3,23 -4,35 -1,7 -2,14 -3,22 -1,12 -3,25 -5,38l-3 19c-2,14 -4,27 -7,41l-2 16c-3,14 -6,29 -9,43l-3 14c-3,15 -6,30 -10,45l-2 13c-4,17 -8,33 -12,49l-2 8c-5,17 -9,34 -14,50l-2 6c-5,17 -10,34 -15,51l-1 5c-6,17 -11,34 -17,50l-2 6c-5,16 -11,33 -17,49l-2 5c-6,17 -12,34 -19,50l-1 4c-7,17 -14,34 -21,51l-1 2c-362,856 -1210,1456 -2198,1457l-1 0c-20,0 -40,0 -61,-1l0 0c-1289,-33 -2324,-1088 -2324,-2385 0,-1318 1068,-2386 2386,-2386z"/>
   <path class="fil1" d="M3600 0c1988,0 3600,1612 3600,3600 0,29 0,58 -1,87l0 9c-1,27 -2,54 -3,81l-1 14c-1,26 -3,53 -5,79l-1 14c-2,27 -4,53 -7,79l-1 13c-3,27 -6,53 -9,80l-2 9c-3,26 -7,53 -11,80l-1 4c-4,27 -8,54 -13,80l-2 12c-4,26 -9,51 -14,76l-4 16c-5,24 -10,48 -15,72l-4 17c-6,24 -12,48 -18,72 -1,5 -3,11 -4,16 -6,24 -13,48 -19,72 -2,4 -3,9 -4,13 -7,22 -13,44 -20,65 -1,5 -3,10 -4,15 -7,23 -15,45 -22,68 -2,6 -4,12 -6,18 -8,22 -15,44 -23,65 -3,7 -6,15 -8,22 -8,21 -16,41 -24,62 -3,8 -6,15 -9,23 -8,20 -16,40 -25,61 -3,7 -6,14 -9,22 -8,17 -15,35 -23,52 -4,10 -9,20 -13,30 -7,15 -15,31 -22,46 -5,10 -10,20 -15,30 -7,16 -15,32 -23,48 -5,9 -10,19 -15,28 -8,17 -17,34 -26,51 -6,10 -11,20 -16,29 -9,17 -19,33 -28,49 -5,10 -11,20 -17,30 -7,13 -15,25 -22,38 -8,13 -17,27 -25,40 -6,11 -13,21 -19,31 -10,15 -19,30 -29,45 -6,10 -12,19 -18,28 -11,16 -22,32 -33,48 -6,9 -11,17 -17,25 -12,17 -24,33 -36,50 -5,7 -11,15 -17,23 -8,11 -17,23 -25,34 -5,7 -10,13 -15,20 -14,18 -28,35 -42,53 -4,5 -8,10 -12,15 -15,19 -30,37 -46,56l-12 14c-16,19 -33,38 -49,57l-10 10c-18,21 -36,41 -55,61l-6 7c-54,56 -108,111 -165,164l-4 4c-21,20 -43,40 -65,59l-5 5c-11,9 -22,19 -33,28l0 1 0 0 -8 7 0 0 -8 6 0 0 -8 7 0 0 -8 7 0 0 -8 7 0 0 -8 7 0 0 -8 6 0 0 -8 7 0 0 -8 7 0 0 -17 13 0 0c-5,4 -11,9 -16,13l0 0 -8 7 0 0 -1 1 -15 11 -1 1 0 0 -1 1 -16 12 0 0 -8 6 0 0 -8 7 0 0 -9 6 0 0 -8 7 0 0 -8 6 0 0 -9 6 0 0 -8 7 0 0 -9 6 0 0 -8 6 0 0 -2 1 -14 11 -1 1 0 0 -2 1 -15 11 0 0 -18 12 0 0c-8,6 -17,12 -26,18l0 0 -8 6 0 0 -9 6 0 0 -9 6 0 0 -8 6 0 0 -9 6 0 0 -9 6 0 0 -9 6 0 0 -9 6 0 0 -8 6 0 0 -9 5 0 1 -9 5 0 0 -9 6 0 0 -9 6 0 0 -9 5 0 0 -9 6 0 0 -9 6 0 0 -9 5 0 0 -9 6 0 0 -9 5 0 0 -9 6 0 0 -9 6 0 0 -9 5 0 0 -9 6 0 0 -9 5 0 0 -9 5 0 0 -9 6 0 0 -9 5 0 0 -10 5 0 0 -1083 -1547c-219,101 -463,157 -720,157 -953,0 -1726,-773 -1726,-1726 0,-953 773,-1726 1726,-1726 953,0 1726,773 1726,1726 0,453 -174,865 -459,1173l697 996c591,-535 963,-1309 963,-2169 0,-1616 -1311,-2927 -2927,-2927 -1616,0 -2927,1311 -2927,2927 0,1616 1311,2927 2927,2927l0 0 0 673 0 0c-1988,0 -3600,-1612 -3600,-3600 0,-1988 1612,-3600 3600,-3600z"/>
   <path class="fil2" d="M2623 2769l1954 0c29,0 53,24 53,54l0 225c0,29 -24,53 -53,53l-1954 0c-29,0 -53,-24 -53,-53l0 -225c0,-30 24,-54 53,-54zm0 1330l1954 0c29,0 53,24 53,53l0 225c0,30 -24,54 -53,54l-1954 0c-29,0 -53,-24 -53,-54l0 -225c0,-29 24,-53 53,-53zm0 -665l1954 0c29,0 53,24 53,54l0 224c0,30 -24,54 -53,54l-1954 0c-29,0 -53,-24 -53,-54l0 -224c0,-30 24,-54 53,-54z"/>
  </g>
 </g>
</svg>
