<?xml version="1.0" encoding="UTF-8"?>
<!DOCTYPE svg PUBLIC "-//W3C//DTD SVG 1.1//EN" "http://www.w3.org/Graphics/SVG/1.1/DTD/svg11.dtd">
<!-- Creator: CorelDRAW X7 -->
<svg xmlns="http://www.w3.org/2000/svg" xml:space="preserve" width="96px" height="96px" version="1.1" style="shape-rendering:geometricPrecision; text-rendering:geometricPrecision; image-rendering:optimizeQuality; fill-rule:evenodd; clip-rule:evenodd"
viewBox="0 0 9600 9600"
 xmlns:xlink="http://www.w3.org/1999/xlink">
 <defs>
  <style type="text/css">
   <![CDATA[
    .fil2 {fill:#FEFEFE}
    .fil0 {fill:#BDBFC1}
    .fil1 {fill:#FEBF2C}
   ]]>
  </style>
 </defs>
 <g id="Layer_x0020_1">
  <metadata id="CorelCorpID_0Corel-Layer"/>
  <g id="_238769040">
   <path class="fil0" d="M4800 1619c1757,0 3181,1424 3181,3181 0,12 0,25 0,37l0 4c-1,24 -1,48 -2,72l0 11c-1,22 -2,43 -4,65l-1 22c-1,18 -2,36 -4,55 -1,12 -2,24 -3,37 -1,13 -3,26 -4,39 -2,16 -4,31 -6,47 -1,10 -2,20 -3,29 -3,17 -5,34 -7,51l-4 26c-3,18 -6,36 -9,54l-4 21c-3,20 -7,39 -11,58l-4 18c-4,21 -8,41 -13,61l-4 17c-5,22 -10,44 -16,66l-2 9c-6,23 -12,46 -19,68l-2 8c-6,23 -13,45 -20,67l-2 8c-7,22 -14,44 -22,66l-3 8c-7,22 -15,44 -23,66l-2 6c-8,23 -17,45 -25,67l-2 5c-9,23 -19,45 -28,68l-1 2c-483,1142 -1614,1943 -2931,1943l-1 0c-27,0 -54,0 -81,-1l0 0c-1719,-44 -3099,-1451 -3099,-3180 0,-1757 1424,-3181 3181,-3181z"/>
   <path class="fil1" d="M4800 0c2651,0 4800,2149 4800,4800 0,39 0,77 -1,116l-1 12c0,36 -2,72 -4,109l-1 17c-1,36 -4,71 -6,106l-2 19c-2,35 -6,70 -9,105l-2 18c-4,35 -8,70 -12,106l-2 12c-4,35 -9,71 -14,106l-1 7c-6,35 -12,71 -18,106l-3 16c-6,34 -12,67 -19,101l-4 21c-7,32 -14,64 -21,96l-6 24c-7,31 -15,63 -23,95 -2,7 -4,14 -6,21 -8,33 -17,64 -26,96 -1,6 -3,12 -5,18 -8,29 -17,58 -26,87 -2,6 -4,13 -6,19 -9,31 -19,61 -29,91 -3,8 -6,16 -8,25 -10,28 -20,57 -31,86 -3,9 -7,19 -10,29 -11,28 -21,55 -32,83 -4,10 -8,20 -12,30 -11,27 -22,54 -33,81 -4,10 -8,20 -12,29 -10,24 -21,47 -31,70 -6,13 -12,26 -18,40 -9,20 -19,41 -29,62 -6,13 -13,27 -19,40 -11,21 -21,42 -32,63 -6,13 -12,26 -19,38 -12,23 -24,45 -36,68 -7,13 -14,26 -21,39 -12,22 -24,44 -36,65 -8,14 -16,27 -23,40 -10,17 -20,34 -30,50 -11,18 -22,36 -33,55 -8,13 -17,27 -25,40 -13,20 -26,41 -39,61 -8,12 -16,25 -25,37 -14,22 -29,43 -43,64 -8,11 -15,22 -23,33 -16,22 -31,44 -47,66 -8,10 -15,21 -23,31 -11,15 -23,31 -34,46 -7,9 -13,17 -20,26 -18,24 -37,47 -55,71 -6,7 -11,13 -17,20 -20,25 -40,50 -61,74l-16 19c-21,26 -44,51 -66,76l-12 14c-25,27 -49,55 -74,81l-9 9c-70,76 -144,149 -219,219l-5 5c-29,27 -58,53 -87,79l-7 6c-14,13 -29,26 -44,39l1 0 0 0 -11 9 0 0 -11 9 0 0 -10 9 0 0 -11 9 0 0 -11 9 0 0 -11 9 0 0 -10 9 0 0 -11 9 0 0 -11 9 0 0 -22 18 0 0c-7,6 -15,12 -22,18l0 0 -11 8 0 0 -1 1 -20 16 -1 1 0 0 -1 1 -21 16 0 0 -11 9 0 0 -11 8 0 0 -12 9 0 0 -11 8 0 0 -11 9 0 0 -11 8 0 0 -11 9 0 0 -12 8 0 0 -11 8 0 1 -2 1 -19 14 -2 1 0 0 -2 1 -21 16 0 0 -23 16 0 0c-11,8 -23,16 -34,24l0 0 -12 8 0 0 -11 8 0 0 -12 8 0 0 -12 8 0 0 -11 8 0 0 -12 8 0 0 -12 8 0 0 -11 7 -1 0 -11 8 0 0 -12 8 0 0 -12 8 0 0 -12 7 0 0 -12 8 0 0 -12 7 0 0 -11 8 0 0 -12 8 0 0 -12 7 0 0 -12 7 0 0 -12 8 0 0 -12 7 0 0 -12 8 0 0 -12 7 0 0 -13 7 0 0 -12 8 0 0 -12 7 0 0 -12 7 0 0 -12 7 0 0 -12 7 0 0 -1445 -2063c-292,134 -617,209 -960,209 -1271,0 -2301,-1030 -2301,-2301 0,-1271 1030,-2301 2301,-2301 1271,0 2301,1030 2301,2301 0,604 -232,1153 -612,1563l930 1329c788,-714 1283,-1745 1283,-2892 0,-2155 -1747,-3902 -3902,-3902 -2155,0 -3902,1747 -3902,3902 0,2155 1747,3902 3902,3902l0 0 0 898 0 0c-2651,0 -4800,-2149 -4800,-4800 0,-2651 2149,-4800 4800,-4800z"/>
   <path class="fil2" d="M3498 3692l2604 0c40,0 72,32 72,72l0 300c0,39 -32,71 -72,71l-2604 0c-40,0 -72,-32 -72,-71l0 -300c0,-40 32,-72 72,-72zm0 1773l2604 0c40,0 72,32 72,71l0 300c0,40 -32,72 -72,72l-2604 0c-40,0 -72,-32 -72,-72l0 -300c0,-39 32,-71 72,-71zm0 -887l2604 0c40,0 72,33 72,72l0 300c0,39 -32,72 -72,72l-2604 0c-40,0 -72,-33 -72,-72l0 -300c0,-39 32,-72 72,-72z"/>
  </g>
 </g>
</svg>
