<?xml version="1.0" encoding="UTF-8"?>
<!DOCTYPE svg PUBLIC "-//W3C//DTD SVG 1.1//EN" "http://www.w3.org/Graphics/SVG/1.1/DTD/svg11.dtd">
<!-- Creator: CorelDRAW X7 -->
<svg xmlns="http://www.w3.org/2000/svg" xml:space="preserve" width="30px" height="30px" version="1.1" style="shape-rendering:geometricPrecision; text-rendering:geometricPrecision; image-rendering:optimizeQuality; fill-rule:evenodd; clip-rule:evenodd"
viewBox="0 0 3000 3000"
 xmlns:xlink="http://www.w3.org/1999/xlink">
 <defs>
  <style type="text/css">
   <![CDATA[
    .fil2 {fill:#FEFEFE}
    .fil0 {fill:#BDBEBF}
    .fil1 {fill:#FC8835}
   ]]>
  </style>
 </defs>
 <g id="Layer_x0020_1">
  <metadata id="CorelCorpID_0Corel-Layer"/>
  <g id="_358720040">
   <path class="fil0" d="M1500 506c549,0 994,445 994,994 0,4 0,8 0,12l0 1c0,7 0,15 0,22l-1 4c0,6 0,13 -1,20l0 7c0,6 -1,11 -1,17 -1,4 -1,8 -1,12 -1,4 -1,8 -2,12 0,5 -1,10 -1,15 -1,3 -1,6 -1,9 -1,5 -2,10 -3,15l-1 9c-1,5 -2,11 -3,17l-1 6c-1,6 -2,12 -3,18l-1 6c-2,6 -3,13 -5,19l-1 5c-1,7 -3,14 -5,21l-1 3c-1,7 -3,14 -5,21l-1 2c-2,8 -4,15 -6,21l-1 3c-2,7 -4,14 -7,21l-1 2c-2,7 -4,14 -7,21l-1 2c-2,7 -5,13 -7,20l-1 2c-3,7 -6,14 -9,21l0 1c-151,357 -504,607 -916,607l0 0c-9,0 -17,0 -26,0l0 0c-537,-14 -968,-454 -968,-994 0,-549 445,-994 994,-994z"/>
   <path class="fil1" d="M1500 0c828,0 1500,672 1500,1500 0,12 0,24 0,36l0 4c-1,11 -1,23 -2,34l0 5c-1,11 -1,23 -2,34l0 5c-1,11 -2,22 -3,33l-1 6c-1,11 -2,22 -4,33l0 4c-2,11 -3,22 -5,33l0 2c-2,11 -4,22 -6,33l-1 5c-2,11 -4,21 -6,32l-1 6c-2,10 -4,20 -7,30l-1 8c-3,10 -5,20 -8,29 0,3 -1,5 -1,7 -3,10 -6,20 -8,30 -1,2 -1,4 -2,6 -3,9 -5,18 -8,27 -1,2 -1,4 -2,6 -3,9 -6,19 -9,28 -1,3 -2,5 -3,8 -3,9 -6,18 -9,27 -1,3 -2,6 -3,9 -4,9 -7,17 -10,26 -2,3 -3,6 -4,9 -3,9 -7,17 -10,26 -2,3 -3,6 -4,9 -3,7 -7,14 -10,22 -2,4 -4,8 -5,12 -3,7 -7,13 -10,20 -2,4 -4,8 -6,12 -3,7 -6,13 -9,20 -2,4 -4,8 -6,12 -4,7 -8,14 -12,21 -2,4 -4,8 -6,12 -4,7 -8,14 -12,20 -2,5 -4,9 -7,13 -3,5 -6,10 -9,15 -3,6 -7,12 -10,17 -3,5 -6,9 -8,13 -4,6 -8,13 -12,19 -3,4 -6,8 -8,12 -5,6 -9,13 -14,20 -2,3 -4,7 -7,10 -5,7 -10,14 -15,21 -2,3 -4,6 -7,9 -3,5 -7,10 -10,15 -2,2 -5,5 -7,8 -5,7 -11,15 -17,22 -2,2 -3,4 -5,6 -6,8 -13,16 -19,24l-5 5c-7,8 -14,16 -21,24l-4 5c-7,8 -15,17 -23,25l-2 3c-23,23 -45,46 -69,68l-2 2c-8,8 -17,16 -27,24l-2 2c-4,4 -9,8 -13,12l0 0 0 0 -4 3 0 0 -3 3 0 0 -3 3 0 0 -4 3 0 0 -3 3 0 0 -4 2 0 0 -3 3 0 0 -3 3 0 0 -4 3 0 0 -6 5 0 0c-3,2 -5,4 -7,6l0 0 -4 3 0 0 0 0 -6 5 -1 0 0 0 0 0 -7 5 0 0 -3 3 0 0 -4 3 0 0 -3 2 0 0 -3 3 -1 0 -3 3 0 0 -4 2 0 0 -3 3 0 0 -4 3 0 0 -3 2 0 0 -1 1 -6 4 0 1 0 0 -1 0 -6 5 0 0 -8 5 0 0c-3,2 -7,5 -10,7l0 0 -4 3 0 0 -4 2 0 0 -3 3 0 0 -4 2 0 0 -4 3 0 0 -3 2 0 0 -4 3 0 0 -4 2 0 0 -3 3 0 0 -4 2 0 0 -4 2 0 0 -3 3 0 0 -4 2 0 0 -4 2 0 0 -4 3 0 0 -3 2 0 0 -4 3 0 0 -4 2 0 0 -3 2 0 0 -4 2 0 1 -4 2 0 0 -4 2 0 0 -4 2 0 0 -3 3 0 0 -4 2 0 0 -4 2 0 0 -4 2 0 0 -4 3 0 0 -451 -645c-91,42 -193,65 -300,65 -397,0 -719,-322 -719,-719 0,-397 322,-719 719,-719 397,0 719,322 719,719 0,189 -72,360 -191,489l290 415c247,-223 401,-546 401,-904 0,-674 -545,-1219 -1219,-1219 -674,0 -1219,545 -1219,1219 0,674 545,1219 1219,1219l0 0 0 281 0 0c-828,0 -1500,-672 -1500,-1500 0,-828 672,-1500 1500,-1500z"/>
   <path class="fil2" d="M1093 1154l814 0c12,0 22,10 22,22l0 94c0,12 -10,22 -22,22l-814 0c-12,0 -22,-10 -22,-22l0 -94c0,-12 10,-22 22,-22zm0 554l814 0c12,0 22,10 22,22l0 94c0,12 -10,22 -22,22l-814 0c-12,0 -22,-10 -22,-22l0 -94c0,-12 10,-22 22,-22zm0 -277l814 0c12,0 22,10 22,22l0 94c0,12 -10,22 -22,22l-814 0c-12,0 -22,-10 -22,-22l0 -94c0,-12 10,-22 22,-22z"/>
  </g>
 </g>
</svg>
